<svg id="svg" version="1.1" xmlns="http://www.w3.org/2000/svg" xmlns:xlink="http://www.w3.org/1999/xlink" width="400" height="360.5769230769231" viewBox="0, 0, 400,360.5769230769231"><g id="svgg"><path id="path0" d="M182.867 25.959 C 182.570 26.128,179.730 26.457,176.557 26.690 C 173.384 26.924,170.706 27.233,170.606 27.378 C 170.506 27.523,168.801 27.849,166.817 28.103 C 164.833 28.356,163.048 28.692,162.849 28.848 C 162.651 29.005,161.271 29.333,159.784 29.577 C 158.296 29.821,156.916 30.123,156.718 30.248 C 156.519 30.372,155.302 30.746,154.013 31.079 C 148.686 32.453,146.970 32.954,146.799 33.184 C 146.700 33.318,145.809 33.627,144.820 33.873 C 143.831 34.118,142.857 34.445,142.656 34.600 C 142.455 34.755,141.519 35.103,140.577 35.373 C 139.635 35.644,138.864 35.976,138.864 36.111 C 138.864 36.247,138.052 36.552,137.060 36.790 C 136.069 37.028,135.257 37.333,135.257 37.469 C 135.257 37.604,134.527 37.930,133.634 38.194 C 132.741 38.457,132.011 38.817,132.011 38.994 C 132.011 39.170,131.802 39.315,131.546 39.315 C 131.290 39.315,130.452 39.636,129.682 40.028 C 128.912 40.421,127.742 40.920,127.081 41.138 C 126.420 41.356,125.879 41.667,125.879 41.828 C 125.879 41.990,125.478 42.223,124.987 42.346 C 124.496 42.469,123.500 42.974,122.772 43.467 C 122.045 43.961,121.229 44.364,120.960 44.364 C 120.690 44.364,120.469 44.509,120.469 44.686 C 120.469 44.863,120.074 45.106,119.592 45.227 C 119.110 45.348,118.500 45.663,118.237 45.926 C 117.737 46.427,116.415 47.196,114.427 48.143 C 113.783 48.451,113.255 48.845,113.255 49.019 C 113.255 49.193,112.861 49.435,112.379 49.556 C 111.897 49.677,111.288 49.982,111.026 50.235 C 110.764 50.487,109.739 51.211,108.747 51.844 C 107.755 52.476,106.686 53.243,106.372 53.548 C 106.058 53.853,105.666 54.103,105.500 54.103 C 105.335 54.103,104.943 54.339,104.629 54.627 C 102.761 56.341,102.409 56.628,102.164 56.632 C 101.827 56.638,100.081 57.983,99.010 59.062 C 98.567 59.509,98.059 59.874,97.882 59.874 C 97.705 59.874,97.059 60.420,96.446 61.088 C 95.834 61.755,95.151 62.364,94.929 62.440 C 93.478 62.939,80.230 76.181,76.216 81.145 C 75.659 81.834,74.959 82.669,74.662 83.000 C 73.903 83.846,72.804 85.225,71.957 86.395 C 71.134 87.531,68.331 91.241,67.859 91.817 C 67.687 92.028,67.337 92.596,67.082 93.080 C 66.827 93.563,66.515 94.040,66.389 94.139 C 66.263 94.238,65.642 95.131,65.010 96.123 C 64.378 97.115,63.693 98.123,63.489 98.363 C 63.284 98.604,62.929 99.213,62.700 99.716 C 62.470 100.219,62.177 100.631,62.047 100.631 C 61.918 100.631,61.589 101.199,61.317 101.894 C 61.044 102.588,60.719 103.156,60.595 103.156 C 60.471 103.156,60.146 103.724,59.874 104.418 C 59.601 105.113,59.259 105.681,59.113 105.681 C 58.967 105.681,58.660 106.249,58.431 106.943 C 58.202 107.638,57.904 108.206,57.768 108.206 C 57.633 108.206,56.957 109.423,56.267 110.911 C 55.577 112.399,54.889 113.616,54.738 113.616 C 54.587 113.616,54.463 113.835,54.463 114.103 C 54.463 114.371,54.076 115.318,53.603 116.208 C 53.130 117.098,52.631 118.339,52.493 118.967 C 52.355 119.595,52.092 120.108,51.909 120.108 C 51.725 120.108,51.380 120.839,51.141 121.731 C 50.902 122.624,50.591 123.354,50.450 123.354 C 50.308 123.354,50.077 123.882,49.935 124.527 C 49.794 125.171,49.375 126.265,49.005 126.956 C 48.635 127.647,48.332 128.427,48.332 128.689 C 48.332 128.951,48.022 129.846,47.643 130.678 C 47.264 131.510,46.841 132.800,46.701 133.544 C 46.562 134.288,46.321 134.896,46.167 134.896 C 46.012 134.896,45.676 135.951,45.419 137.241 C 45.163 138.530,44.837 139.585,44.696 139.585 C 44.554 139.585,44.248 140.678,44.016 142.013 C 43.783 143.348,43.458 144.606,43.294 144.808 C 43.130 145.010,42.794 146.434,42.548 147.971 C 42.302 149.509,41.990 150.766,41.854 150.766 C 41.718 150.766,41.395 152.349,41.135 154.283 C 40.875 156.217,40.538 157.962,40.387 158.161 C 40.236 158.359,39.918 160.631,39.679 163.210 C 39.441 165.789,39.059 168.289,38.830 168.765 C 38.206 170.062,38.239 204.210,38.864 204.418 C 39.121 204.504,39.315 205.169,39.315 205.968 C 39.315 208.111,40.101 214.742,40.404 215.149 C 40.551 215.347,40.873 216.970,41.118 218.756 C 41.364 220.541,41.689 222.164,41.841 222.362 C 41.993 222.561,42.317 223.940,42.561 225.428 C 42.805 226.916,43.133 228.296,43.290 228.494 C 43.447 228.693,43.774 229.869,44.017 231.109 C 44.259 232.349,44.578 233.363,44.725 233.363 C 44.872 233.363,45.096 234.134,45.222 235.077 C 45.348 236.019,45.678 237.225,45.956 237.757 C 46.233 238.290,46.575 239.264,46.716 239.922 C 46.856 240.580,47.281 241.808,47.660 242.651 C 48.040 243.494,48.447 244.671,48.566 245.266 C 48.685 245.861,48.909 246.348,49.062 246.348 C 49.216 246.348,49.537 247.160,49.775 248.151 C 50.013 249.143,50.332 249.955,50.485 249.955 C 50.638 249.955,50.967 250.685,51.217 251.578 C 51.467 252.471,51.792 253.201,51.939 253.201 C 52.085 253.201,52.410 253.931,52.660 254.824 C 52.910 255.717,53.230 256.447,53.371 256.447 C 53.512 256.447,53.822 257.096,54.060 257.890 C 54.298 258.683,54.623 259.333,54.782 259.333 C 54.941 259.333,55.265 259.982,55.503 260.775 C 55.741 261.569,56.073 262.218,56.242 262.218 C 56.411 262.218,56.650 262.620,56.773 263.111 C 56.897 263.601,57.401 264.598,57.895 265.325 C 58.388 266.052,58.792 266.868,58.792 267.138 C 58.792 267.408,58.924 267.628,59.085 267.628 C 59.246 267.628,59.601 268.197,59.874 268.891 C 60.146 269.585,60.481 270.153,60.619 270.153 C 60.756 270.153,61.070 270.640,61.317 271.235 C 61.563 271.830,61.877 272.317,62.014 272.317 C 62.152 272.317,62.487 272.885,62.759 273.580 C 63.032 274.274,63.367 274.842,63.504 274.842 C 63.641 274.842,63.955 275.329,64.202 275.924 C 64.448 276.519,64.767 277.006,64.909 277.006 C 65.052 277.006,65.356 277.418,65.585 277.922 C 66.005 278.842,66.374 279.356,67.538 280.639 C 67.885 281.022,68.170 281.446,68.170 281.583 C 68.170 281.950,73.304 288.680,73.841 289.017 C 74.094 289.176,74.301 289.464,74.301 289.658 C 74.301 290.018,75.319 291.212,78.359 294.415 C 79.301 295.408,80.072 296.329,80.072 296.462 C 80.072 296.829,89.126 305.868,90.930 307.302 C 91.802 307.995,93.002 309.090,93.595 309.736 C 94.189 310.382,94.871 310.911,95.110 310.911 C 95.350 310.911,95.676 311.134,95.834 311.406 C 95.993 311.679,97.178 312.728,98.467 313.738 C 99.757 314.748,101.069 315.824,101.383 316.128 C 101.697 316.433,102.089 316.682,102.254 316.682 C 102.419 316.682,102.812 316.935,103.126 317.244 C 103.440 317.553,104.833 318.601,106.222 319.572 C 107.610 320.543,108.924 321.490,109.141 321.676 C 109.358 321.863,110.007 322.281,110.584 322.606 C 111.160 322.930,112.119 323.511,112.714 323.895 C 113.309 324.280,114.283 324.866,114.878 325.197 C 115.473 325.528,116.041 325.908,116.141 326.040 C 116.240 326.173,116.849 326.494,117.493 326.755 C 118.138 327.016,118.665 327.365,118.665 327.532 C 118.665 327.698,119.315 328.028,120.108 328.266 C 120.902 328.504,121.551 328.805,121.551 328.935 C 121.551 329.326,131.865 334.355,132.666 334.355 C 132.901 334.355,133.093 334.496,133.093 334.669 C 133.093 334.842,133.823 335.187,134.716 335.437 C 135.609 335.687,136.339 336.007,136.339 336.148 C 136.339 336.289,137.232 336.618,138.323 336.880 C 139.414 337.142,140.307 337.477,140.307 337.626 C 140.307 337.774,141.118 338.103,142.110 338.358 C 143.102 338.612,143.913 338.926,143.913 339.055 C 143.913 339.184,144.847 339.498,145.987 339.752 C 147.128 340.005,148.147 340.348,148.253 340.514 C 148.358 340.679,149.534 341.021,150.868 341.274 C 152.201 341.527,153.291 341.840,153.291 341.971 C 153.291 342.102,154.387 342.411,155.726 342.658 C 157.065 342.905,158.323 343.229,158.521 343.379 C 158.720 343.528,160.302 343.865,162.038 344.128 C 163.774 344.391,165.194 344.715,165.194 344.848 C 165.194 344.981,167.101 345.299,169.432 345.555 C 171.763 345.810,173.751 346.132,173.850 346.270 C 174.844 347.652,215.836 347.604,216.351 346.220 C 216.417 346.043,216.985 345.897,217.613 345.898 C 219.277 345.898,224.856 345.095,225.068 344.825 C 225.167 344.698,226.628 344.379,228.314 344.116 C 230.000 343.853,231.542 343.516,231.740 343.367 C 231.939 343.218,233.278 342.888,234.716 342.635 C 236.154 342.382,237.331 342.068,237.331 341.938 C 237.331 341.808,238.386 341.492,239.675 341.235 C 240.965 340.979,242.020 340.647,242.020 340.497 C 242.020 340.347,242.994 340.018,244.184 339.766 C 245.374 339.513,246.348 339.192,246.348 339.052 C 246.348 338.913,247.241 338.599,248.332 338.354 C 249.423 338.110,250.316 337.789,250.316 337.641 C 250.316 337.492,251.127 337.150,252.119 336.880 C 253.111 336.610,253.922 336.269,253.922 336.122 C 253.922 335.975,254.450 335.741,255.095 335.601 C 255.739 335.461,256.835 335.045,257.529 334.676 C 259.299 333.735,262.892 332.191,263.311 332.191 C 263.503 332.191,263.661 332.055,263.661 331.888 C 263.661 331.722,264.310 331.371,265.104 331.109 C 265.897 330.847,266.546 330.527,266.546 330.397 C 266.546 330.268,267.115 329.939,267.809 329.666 C 268.503 329.394,269.071 329.064,269.071 328.932 C 269.071 328.801,269.680 328.422,270.424 328.090 C 272.099 327.342,273.881 326.380,274.121 326.093 C 274.220 325.975,274.788 325.635,275.383 325.338 C 275.978 325.041,276.565 324.662,276.687 324.495 C 276.947 324.138,278.156 323.417,279.802 322.638 C 280.446 322.332,280.974 321.922,280.974 321.726 C 280.974 321.531,281.153 321.371,281.373 321.371 C 281.592 321.371,282.387 320.884,283.138 320.289 C 283.889 319.693,284.684 319.206,284.903 319.206 C 285.123 319.206,285.302 319.040,285.302 318.837 C 285.302 318.634,285.708 318.313,286.204 318.124 C 286.700 317.936,287.106 317.626,287.106 317.436 C 287.106 317.246,287.412 316.994,287.787 316.875 C 288.161 316.756,288.872 316.299,289.367 315.859 C 289.861 315.419,290.886 314.572,291.645 313.977 C 292.403 313.381,293.394 312.538,293.848 312.103 C 294.302 311.667,294.899 311.180,295.175 311.021 C 296.229 310.411,300.359 306.574,305.090 301.808 C 310.875 295.981,312.024 294.727,315.600 290.349 C 316.294 289.499,317.146 288.502,317.493 288.135 C 317.840 287.767,318.124 287.313,318.124 287.126 C 318.124 286.939,318.423 286.574,318.789 286.314 C 319.154 286.055,319.663 285.448,319.919 284.964 C 320.410 284.040,320.784 283.533,321.821 282.391 C 322.169 282.008,322.453 281.600,322.453 281.484 C 322.453 281.309,323.977 279.024,325.073 277.556 C 325.949 276.381,327.142 274.403,327.142 274.123 C 327.142 273.943,327.345 273.666,327.593 273.508 C 327.841 273.349,328.287 272.732,328.584 272.137 C 328.881 271.542,329.221 270.974,329.340 270.875 C 329.588 270.666,330.465 269.073,331.303 267.305 C 331.623 266.632,332.115 265.849,332.398 265.567 C 332.680 265.284,333.010 264.659,333.131 264.177 C 333.252 263.695,333.470 263.300,333.615 263.300 C 333.760 263.300,334.093 262.651,334.355 261.858 C 334.617 261.064,334.942 260.415,335.077 260.415 C 335.212 260.415,335.536 259.766,335.798 258.972 C 336.060 258.179,336.389 257.529,336.530 257.529 C 336.671 257.529,336.991 256.799,337.241 255.906 C 337.491 255.014,337.815 254.283,337.962 254.283 C 338.109 254.283,338.434 253.553,338.683 252.660 C 338.933 251.767,339.264 251.037,339.418 251.037 C 339.573 251.037,339.907 250.225,340.161 249.234 C 340.415 248.242,340.742 247.430,340.887 247.430 C 341.032 247.430,341.263 246.903,341.401 246.258 C 341.538 245.613,341.945 244.431,342.305 243.630 C 342.665 242.830,343.074 241.694,343.215 241.106 C 343.356 240.517,343.600 239.872,343.756 239.671 C 343.912 239.470,344.238 238.496,344.480 237.506 C 344.722 236.517,345.037 235.546,345.181 235.347 C 345.325 235.149,345.656 233.891,345.916 232.552 C 346.177 231.213,346.497 230.117,346.627 230.117 C 346.757 230.117,347.071 228.940,347.324 227.502 C 347.577 226.064,347.921 224.717,348.087 224.509 C 348.253 224.301,348.588 222.638,348.831 220.812 C 349.074 218.987,349.385 217.493,349.521 217.493 C 349.657 217.493,349.965 215.667,350.204 213.436 C 350.444 211.204,350.781 209.053,350.954 208.656 C 352.343 205.456,352.357 167.866,350.971 164.653 C 350.799 164.256,350.470 162.150,350.238 159.972 C 350.006 157.794,349.685 155.846,349.526 155.644 C 349.366 155.441,349.037 153.895,348.796 152.209 C 348.555 150.523,348.236 148.981,348.087 148.783 C 347.938 148.584,347.613 147.245,347.365 145.807 C 347.117 144.369,346.803 143.192,346.668 143.192 C 346.533 143.192,346.216 142.105,345.964 140.776 C 345.712 139.447,345.368 138.189,345.201 137.981 C 345.033 137.772,344.689 136.668,344.437 135.528 C 344.185 134.387,343.868 133.454,343.733 133.454 C 343.598 133.454,343.287 132.561,343.043 131.470 C 342.799 130.379,342.479 129.486,342.333 129.486 C 342.186 129.486,341.858 128.674,341.604 127.683 C 341.350 126.691,341.015 125.879,340.859 125.879 C 340.704 125.879,340.479 125.390,340.359 124.791 C 340.240 124.193,339.733 122.808,339.232 121.715 C 338.732 120.621,338.323 119.569,338.323 119.376 C 338.323 119.184,338.179 119.026,338.002 119.026 C 337.826 119.026,337.576 118.463,337.447 117.775 C 337.318 117.087,337.000 116.312,336.740 116.052 C 336.480 115.792,336.068 114.976,335.824 114.237 C 335.581 113.499,335.257 112.894,335.106 112.894 C 334.954 112.894,334.636 112.245,334.398 111.452 C 334.160 110.658,333.842 110.009,333.692 110.009 C 333.541 110.009,333.213 109.441,332.962 108.747 C 332.711 108.052,332.386 107.484,332.240 107.484 C 332.095 107.484,331.759 106.887,331.495 106.156 C 331.231 105.426,330.872 104.655,330.696 104.443 C 329.951 103.542,328.638 101.369,328.416 100.668 C 328.283 100.251,328.043 99.910,327.882 99.910 C 327.721 99.910,327.388 99.423,327.142 98.828 C 326.895 98.233,326.567 97.746,326.412 97.746 C 326.257 97.746,325.960 97.259,325.753 96.664 C 325.545 96.069,325.205 95.582,324.996 95.582 C 324.788 95.582,324.617 95.379,324.616 95.131 C 324.616 94.883,324.215 94.214,323.725 93.644 C 323.235 93.074,322.737 92.303,322.619 91.931 C 322.501 91.558,322.264 91.253,322.092 91.253 C 321.920 91.253,321.683 90.947,321.564 90.572 C 321.445 90.198,320.988 89.483,320.548 88.984 C 320.108 88.485,319.423 87.657,319.026 87.144 C 318.629 86.630,318.002 85.844,317.633 85.396 C 317.263 84.947,316.533 84.018,316.010 83.330 C 315.487 82.642,314.815 81.805,314.518 81.469 C 314.220 81.133,313.165 79.922,312.173 78.778 C 310.215 76.519,300.473 66.778,297.674 64.280 C 294.029 61.027,292.689 59.893,292.478 59.883 C 292.358 59.878,291.847 59.509,291.341 59.062 C 290.835 58.616,290.041 57.960,289.575 57.604 C 289.109 57.248,288.242 56.559,287.647 56.072 C 287.051 55.584,286.379 55.186,286.152 55.185 C 285.925 55.185,285.647 54.941,285.532 54.644 C 285.418 54.346,285.084 54.103,284.790 54.103 C 284.496 54.103,284.126 53.900,283.967 53.652 C 283.578 53.044,280.414 50.857,279.923 50.857 C 279.707 50.857,279.531 50.714,279.531 50.540 C 279.531 50.365,279.004 50.009,278.359 49.749 C 277.714 49.488,277.087 49.129,276.965 48.951 C 276.728 48.605,275.793 48.034,273.760 46.994 C 273.066 46.639,272.375 46.158,272.225 45.925 C 272.075 45.693,271.466 45.396,270.873 45.266 C 270.279 45.135,269.793 44.913,269.793 44.771 C 269.793 44.630,269.265 44.262,268.620 43.952 C 267.976 43.643,266.012 42.643,264.256 41.729 C 262.501 40.816,260.477 39.874,259.758 39.637 C 259.039 39.400,258.238 38.993,257.979 38.733 C 257.719 38.474,256.943 38.155,256.255 38.026 C 255.567 37.897,255.005 37.660,255.005 37.500 C 255.005 37.339,254.477 37.092,253.832 36.951 C 253.188 36.809,252.095 36.391,251.404 36.021 C 250.714 35.651,249.618 35.249,248.970 35.127 C 248.321 35.006,247.791 34.784,247.791 34.635 C 247.791 34.486,246.817 34.157,245.627 33.904 C 244.436 33.652,243.463 33.331,243.463 33.191 C 243.463 33.051,242.529 32.731,241.389 32.479 C 240.248 32.227,239.152 31.892,238.954 31.734 C 238.756 31.576,237.538 31.247,236.249 31.001 C 234.959 30.756,233.729 30.419,233.515 30.253 C 233.301 30.087,231.881 29.766,230.359 29.539 C 228.837 29.313,227.592 29.014,227.592 28.875 C 227.592 28.736,226.010 28.419,224.076 28.171 C 222.142 27.923,220.234 27.580,219.838 27.409 C 218.986 27.043,211.998 26.328,209.288 26.329 C 208.246 26.330,207.394 26.168,207.394 25.969 C 207.394 25.520,183.657 25.510,182.867 25.959 M210.821 31.540 C 237.325 34.428,263.982 44.792,283.859 59.936 C 312.403 81.682,330.476 107.776,341.023 142.471 C 342.911 148.683,344.448 156.117,345.907 166.096 C 347.689 178.284,347.512 196.082,345.472 209.879 C 344.858 214.030,344.792 215.209,345.141 215.768 C 345.477 216.306,345.480 216.586,345.152 216.980 C 344.918 217.262,344.811 217.493,344.913 217.493 C 345.247 217.493,344.426 220.533,343.941 221.095 C 343.681 221.395,343.367 222.309,343.243 223.126 C 343.120 223.943,342.774 225.079,342.476 225.651 C 342.178 226.223,341.933 226.891,341.932 227.136 C 341.929 227.800,340.282 233.390,338.822 237.692 C 322.657 285.332,284.387 322.594,237.511 336.336 C 233.136 337.618,227.519 339.044,226.841 339.044 C 226.510 339.044,226.025 339.301,225.765 339.614 C 225.487 339.949,224.945 340.118,224.450 340.023 C 223.987 339.935,223.521 340.003,223.415 340.175 C 223.308 340.346,222.852 340.487,222.401 340.487 C 221.950 340.487,221.469 340.598,221.333 340.735 C 221.050 341.017,220.845 341.040,215.690 341.366 C 213.607 341.498,209.711 341.768,207.033 341.967 C 156.709 345.696,109.574 325.059,77.678 285.330 C 68.666 274.105,62.342 263.549,55.668 248.589 C 39.762 212.941,39.283 165.364,54.450 127.645 C 55.992 123.810,56.103 123.345,55.598 122.840 C 55.093 122.335,55.116 122.210,55.833 121.541 C 56.270 121.134,56.628 120.578,56.628 120.305 C 56.628 120.031,56.760 119.754,56.922 119.687 C 57.274 119.544,59.513 114.995,59.513 114.423 C 59.513 114.204,59.806 113.932,60.164 113.819 C 60.523 113.705,62.011 111.472,63.485 108.835 C 84.160 71.861,121.012 43.747,160.505 34.819 C 163.800 34.074,165.670 33.499,166.997 32.823 C 167.692 32.469,168.787 32.068,169.432 31.931 C 170.077 31.795,170.604 31.534,170.604 31.351 C 170.604 30.768,171.581 30.995,172.093 31.697 C 172.567 32.346,172.777 32.353,177.096 31.861 C 179.576 31.578,183.147 31.204,185.032 31.030 C 190.016 30.569,204.551 30.856,210.821 31.540 " stroke="none" fill="#040624" fill-rule="evenodd"></path><path id="path1" d="M161.858 25.277 C 161.007 25.772,161.051 27.484,161.941 28.544 L 162.656 29.396 162.893 28.554 C 163.037 28.041,163.228 27.870,163.380 28.117 C 163.558 28.404,163.912 28.415,164.593 28.156 C 165.695 27.737,165.792 27.340,164.988 26.536 C 164.676 26.224,164.525 25.969,164.653 25.969 C 164.780 25.969,164.641 25.726,164.344 25.428 C 163.721 24.806,162.766 24.748,161.858 25.277 M169.618 32.292 C 168.778 32.557,167.728 33.028,167.284 33.339 C 166.840 33.650,166.228 33.905,165.925 33.906 C 164.773 33.911,162.669 34.678,162.671 35.094 C 162.677 36.350,163.531 38.239,164.771 39.738 C 165.692 40.852,166.376 42.198,166.785 43.705 C 168.323 49.375,173.334 60.865,176.431 65.825 C 177.269 67.167,179.198 70.632,189.107 88.585 C 196.488 101.959,203.201 112.302,209.333 119.748 C 213.754 125.115,224.663 137.688,235.152 149.504 C 243.003 158.348,252.062 166.841,261.677 174.373 C 295.034 200.501,298.349 202.807,314.288 210.959 C 319.022 213.381,324.703 216.396,326.912 217.660 C 329.121 218.924,331.821 220.220,332.913 220.540 C 334.004 220.860,336.491 221.943,338.441 222.947 C 342.139 224.850,342.227 224.868,342.450 223.764 C 342.680 222.621,343.309 221.182,343.677 220.954 C 343.869 220.836,343.941 220.414,343.838 220.018 C 343.731 219.610,343.827 219.297,344.057 219.297 C 344.286 219.297,344.431 218.836,344.386 218.251 C 344.342 217.675,344.502 216.969,344.741 216.681 C 345.185 216.146,341.798 214.304,339.342 213.745 C 338.812 213.625,337.906 213.128,337.328 212.642 C 336.751 212.156,332.559 209.622,328.013 207.011 C 306.722 194.779,300.343 190.265,283.679 175.639 C 239.952 137.258,205.036 95.274,182.753 54.283 C 179.561 48.412,172.140 33.603,171.890 32.605 C 171.645 31.631,171.697 31.638,169.618 32.292 M53.510 113.792 C 53.662 114.188,53.475 114.337,52.829 114.337 C 52.339 114.337,51.939 114.510,51.939 114.721 C 51.939 114.936,52.452 115.055,53.108 114.991 C 54.390 114.867,54.914 113.866,53.900 113.477 C 53.466 113.310,53.359 113.397,53.510 113.792 M59.787 115.047 C 59.447 115.445,59.091 116.198,58.996 116.721 C 58.901 117.244,58.573 117.949,58.267 118.287 C 57.960 118.626,57.710 119.015,57.710 119.152 C 57.710 119.290,57.266 120.073,56.724 120.892 L 55.738 122.381 56.994 123.400 C 57.685 123.960,60.685 126.296,63.661 128.592 C 71.203 134.410,78.866 141.277,84.296 147.081 C 86.833 149.793,90.614 153.802,92.697 155.988 C 94.781 158.175,97.849 161.506,99.515 163.390 C 101.181 165.275,105.248 169.657,108.552 173.129 C 111.856 176.601,115.875 180.915,117.483 182.717 C 119.091 184.520,124.054 189.713,128.512 194.259 C 138.096 204.032,140.487 206.773,147.363 215.874 C 150.212 219.646,154.160 224.550,156.136 226.772 C 160.499 231.679,161.744 233.406,167.297 242.253 C 177.065 257.813,180.935 265.047,185.312 275.924 C 186.709 279.396,188.692 284.103,189.719 286.384 C 190.746 288.665,193.095 294.265,194.940 298.828 C 199.389 309.834,200.138 311.490,205.457 322.101 C 208.222 327.614,210.682 333.101,211.734 336.098 C 213.148 340.126,213.585 341.016,214.126 340.961 C 214.490 340.925,216.208 340.853,217.944 340.802 C 219.680 340.751,221.100 340.561,221.100 340.379 C 221.100 340.198,221.357 340.148,221.670 340.268 C 221.984 340.388,222.588 340.243,223.013 339.946 C 223.438 339.648,224.074 339.405,224.427 339.405 C 225.304 339.405,225.269 339.106,223.608 332.344 C 220.549 319.899,214.547 304.302,206.130 286.925 C 198.632 271.446,195.491 264.828,195.491 264.506 C 195.491 263.315,184.431 241.338,181.088 235.888 C 164.042 208.095,146.902 187.710,122.092 165.722 C 116.736 160.975,110.223 155.141,107.619 152.757 C 101.133 146.819,98.390 144.424,95.221 141.935 C 93.733 140.766,91.160 138.536,89.504 136.981 C 87.847 135.425,84.845 132.830,82.831 131.214 C 80.818 129.598,77.223 126.373,74.842 124.047 C 69.934 119.251,65.646 116.028,63.179 115.279 C 62.254 114.998,61.251 114.668,60.951 114.547 C 60.634 114.419,60.145 114.629,59.787 115.047 M220.822 353.173 C 220.147 353.848,220.291 354.330,221.310 354.803 C 222.691 355.444,223.484 355.034,222.649 354.111 C 222.293 353.717,222.051 353.291,222.111 353.163 C 222.318 352.722,221.265 352.730,220.822 353.173 M222.904 357.078 C 222.904 357.277,223.027 357.439,223.178 357.439 C 223.328 357.439,223.450 357.885,223.448 358.431 C 223.446 358.977,223.607 359.423,223.805 359.423 C 224.216 359.423,224.224 358.288,223.820 357.349 C 223.527 356.670,222.904 356.486,222.904 357.078 " stroke="none" fill="#f1fbf0" fill-rule="evenodd"></path><path id="path2" d="M187.917 31.425 C 184.247 31.548,180.271 31.820,179.080 32.029 C 177.890 32.237,175.983 32.513,174.842 32.641 C 172.319 32.925,172.283 33.124,174.168 36.366 C 174.937 37.690,176.093 39.910,176.735 41.298 C 178.796 45.758,181.706 51.427,183.583 54.644 C 183.930 55.239,184.703 56.619,185.301 57.710 C 189.596 65.554,198.813 80.174,204.969 88.909 C 209.851 95.836,217.820 106.466,220.920 110.187 C 230.860 122.118,231.049 122.338,236.970 128.898 C 248.285 141.433,265.964 159.069,278.959 170.784 C 280.719 172.372,282.339 173.840,282.558 174.048 C 282.778 174.256,284.824 176.030,287.106 177.991 C 289.387 179.951,291.335 181.650,291.434 181.766 C 291.690 182.068,296.951 186.329,299.729 188.486 C 301.975 190.230,308.838 194.817,313.796 197.889 C 315.086 198.688,317.196 200.000,318.485 200.806 C 319.775 201.611,323.913 204.017,327.683 206.153 C 331.452 208.288,335.509 210.709,336.700 211.532 C 338.653 212.883,342.337 214.555,343.733 214.723 C 344.091 214.766,344.306 214.422,344.368 213.706 C 344.420 213.111,344.627 212.056,344.828 211.362 C 346.143 206.834,347.167 180.622,346.288 174.031 C 346.076 172.444,345.663 169.035,345.371 166.456 C 344.454 158.385,342.062 146.610,340.314 141.569 C 340.038 140.775,339.365 138.665,338.818 136.880 C 338.271 135.095,337.612 133.228,337.354 132.732 C 337.096 132.236,336.878 131.587,336.870 131.289 C 336.862 130.992,336.542 130.099,336.159 129.306 C 335.775 128.512,335.456 127.725,335.450 127.557 C 335.443 127.388,335.172 126.658,334.848 125.934 C 334.525 125.209,333.937 123.886,333.542 122.994 C 330.960 117.156,326.548 108.713,323.720 104.195 C 323.519 103.874,323.048 103.062,322.673 102.392 C 322.298 101.721,321.886 101.091,321.758 100.992 C 321.629 100.893,321.002 100.000,320.363 99.008 C 318.493 96.104,318.442 96.033,315.281 91.839 C 303.295 75.933,289.386 63.409,270.797 51.783 C 268.763 50.511,258.315 45.150,254.771 43.560 C 246.373 39.793,232.256 35.419,224.030 34.037 C 222.368 33.758,220.882 33.452,220.729 33.357 C 220.477 33.201,217.519 32.816,208.476 31.762 C 204.382 31.285,196.082 31.149,187.917 31.425 M161.587 34.964 C 161.289 35.124,160.397 35.370,159.603 35.512 C 158.347 35.735,155.846 36.440,149.324 38.409 C 148.431 38.679,146.564 39.328,145.176 39.852 C 143.787 40.376,141.981 41.024,141.162 41.292 C 140.343 41.559,139.369 41.945,138.998 42.148 C 138.627 42.352,136.456 43.328,134.175 44.318 C 131.894 45.307,129.053 46.633,127.863 47.263 C 123.420 49.615,116.625 53.534,114.968 54.700 C 114.025 55.364,113.178 55.906,113.087 55.906 C 112.810 55.906,104.969 61.648,102.074 63.972 C 93.372 70.954,84.534 79.897,77.428 88.909 C 75.707 91.091,74.147 93.063,73.959 93.291 C 71.414 96.392,61.317 112.872,61.317 113.926 C 61.317 114.152,61.619 114.337,61.989 114.337 C 63.005 114.337,67.467 116.682,68.823 117.928 C 69.480 118.532,70.149 119.026,70.310 119.026 C 70.470 119.026,72.205 120.662,74.165 122.662 C 76.124 124.661,79.594 127.811,81.876 129.661 C 86.538 133.443,86.652 133.542,90.895 137.573 C 92.583 139.176,94.353 140.730,94.829 141.028 C 96.015 141.769,103.138 147.819,106.222 150.704 C 108.721 153.043,126.062 168.582,130.441 172.408 C 141.241 181.843,158.340 201.215,166.735 213.526 C 167.479 214.617,169.717 217.863,171.708 220.739 C 183.141 237.254,187.558 245.201,196.567 265.464 C 198.110 268.936,201.158 275.428,203.339 279.892 C 207.970 289.366,209.150 291.886,211.700 297.746 C 212.737 300.126,213.802 302.561,214.069 303.156 C 218.237 312.464,222.181 323.883,224.158 332.372 C 225.576 338.459,225.796 339.063,226.473 338.717 C 226.791 338.555,227.782 338.310,228.674 338.174 C 233.308 337.467,245.415 333.547,253.696 330.072 C 256.106 329.061,265.531 324.348,268.170 322.835 C 269.558 322.039,271.262 321.075,271.957 320.694 C 282.836 314.724,300.132 299.921,309.651 288.433 C 310.443 287.478,311.395 286.341,311.766 285.909 C 314.142 283.137,321.760 272.518,322.582 270.833 C 322.716 270.558,323.303 269.603,323.888 268.711 C 324.472 267.818,325.199 266.601,325.502 266.005 C 325.806 265.410,326.703 263.787,327.495 262.399 C 329.696 258.544,332.437 252.846,334.699 247.430 C 335.320 245.942,336.065 244.192,336.354 243.541 C 336.643 242.889,336.881 242.159,336.882 241.917 C 336.884 241.676,337.095 241.073,337.353 240.577 C 337.611 240.081,338.041 238.864,338.308 237.872 C 338.576 236.880,338.911 235.906,339.053 235.708 C 339.195 235.509,339.515 234.454,339.766 233.363 C 340.016 232.272,340.344 231.217,340.495 231.019 C 340.646 230.821,340.968 229.684,341.210 228.494 C 341.452 227.304,341.800 226.046,341.983 225.699 C 342.233 225.224,342.175 225.068,341.750 225.068 C 341.438 225.068,339.902 224.340,338.335 223.452 C 336.769 222.563,334.705 221.662,333.749 221.449 C 332.793 221.236,329.089 219.464,325.518 217.511 C 321.948 215.558,316.688 212.793,313.830 211.368 C 302.246 205.589,291.664 198.728,280.769 189.933 C 279.764 189.122,278.487 188.133,277.932 187.737 C 277.377 187.340,276.577 186.728,276.153 186.376 C 275.730 186.024,272.949 183.859,269.973 181.565 C 251.021 166.952,244.501 160.959,231.367 146.078 C 227.253 141.416,223.379 137.033,222.759 136.339 C 214.479 127.072,201.262 110.776,201.262 109.836 C 201.262 109.706,200.857 109.068,200.361 108.418 C 199.865 107.768,199.459 107.147,199.459 107.038 C 199.459 106.928,198.586 105.550,197.518 103.973 C 195.678 101.255,188.372 88.640,185.034 82.417 C 184.182 80.830,182.860 78.448,182.095 77.124 C 181.329 75.800,180.703 74.639,180.703 74.544 C 180.703 74.450,179.133 71.637,177.214 68.295 C 171.616 58.548,167.052 48.224,166.141 43.250 C 166.011 42.538,165.485 41.564,164.973 41.086 C 163.797 39.988,162.692 37.851,162.374 36.058 C 162.182 34.974,162.010 34.736,161.587 34.964 M55.771 125.461 C 55.415 126.385,54.889 127.791,54.603 128.584 C 54.317 129.378,53.925 130.352,53.733 130.748 C 53.059 132.133,51.766 136.097,49.849 142.651 C 47.596 150.356,46.767 154.370,44.936 166.456 C 43.514 175.837,43.497 197.748,44.905 206.492 C 45.192 208.278,45.604 211.093,45.819 212.748 C 46.035 214.403,46.342 216.108,46.501 216.535 C 46.660 216.963,46.907 218.124,47.049 219.116 C 47.833 224.602,52.474 240.041,55.181 246.168 C 55.356 246.564,56.346 248.837,57.382 251.217 C 67.776 275.120,85.029 296.482,107.730 313.558 C 109.750 315.078,111.495 316.321,111.607 316.321 C 111.719 316.321,112.582 316.868,113.525 317.536 C 126.989 327.082,152.706 337.412,168.440 339.595 C 169.333 339.719,171.280 340.047,172.768 340.324 C 181.968 342.037,209.909 342.414,212.424 340.860 C 213.189 340.387,209.494 331.351,203.862 319.928 C 200.684 313.481,196.831 305.041,195.300 301.172 C 193.769 297.304,191.086 290.879,189.338 286.894 C 186.429 280.264,185.564 278.163,182.681 270.725 C 180.424 264.900,171.401 249.271,162.466 235.708 C 159.960 231.905,159.373 231.144,156.760 228.314 C 153.326 224.595,149.956 220.411,145.537 214.376 C 142.644 210.427,136.596 203.356,132.943 199.654 C 123.852 190.438,118.418 184.772,116.501 182.508 C 115.410 181.219,112.553 178.136,110.152 175.655 C 105.341 170.685,102.358 167.485,99.729 164.472 C 98.777 163.381,94.881 159.161,91.071 155.095 C 87.261 151.028,83.352 146.829,82.385 145.763 C 80.573 143.766,71.870 135.755,68.927 133.374 C 66.713 131.583,59.408 125.942,57.745 124.740 L 56.418 123.780 55.771 125.461 " stroke="none" fill="#24db34" fill-rule="evenodd"></path><path id="path3" d="M185.753 30.994 C 184.265 31.107,188.485 31.199,195.131 31.199 C 201.776 31.199,205.996 31.099,204.509 30.976 C 201.193 30.702,189.444 30.713,185.753 30.994 M180.433 31.628 C 180.780 31.719,181.348 31.719,181.695 31.628 C 182.042 31.538,181.758 31.463,181.064 31.463 C 180.370 31.463,180.086 31.538,180.433 31.628 M208.751 31.635 C 209.199 31.721,209.849 31.718,210.194 31.627 C 210.538 31.537,210.171 31.467,209.378 31.471 C 208.584 31.475,208.302 31.548,208.751 31.635 M172.348 32.546 C 172.494 32.692,173.338 32.664,174.223 32.484 L 175.834 32.156 173.959 32.219 C 172.927 32.253,172.202 32.401,172.348 32.546 M216.050 32.480 C 218.227 32.867,219.933 32.834,218.034 32.441 C 217.241 32.277,216.105 32.154,215.509 32.167 C 214.698 32.185,214.833 32.264,216.050 32.480 M224.527 33.904 C 226.052 34.293,227.362 34.293,226.150 33.904 C 225.654 33.746,224.842 33.619,224.346 33.622 C 223.536 33.628,223.555 33.657,224.527 33.904 M230.298 35.177 C 231.091 35.438,232.065 35.650,232.462 35.648 C 232.858 35.645,232.372 35.418,231.380 35.142 C 229.123 34.514,228.361 34.539,230.298 35.177 M158.161 35.347 C 157.241 35.742,158.190 35.742,159.423 35.347 C 160.148 35.115,160.183 35.056,159.603 35.048 C 159.206 35.042,158.557 35.177,158.161 35.347 M153.163 36.657 C 152.200 36.953,151.484 37.267,151.573 37.356 C 151.661 37.444,152.693 37.207,153.865 36.829 C 155.037 36.450,155.753 36.136,155.455 36.130 C 155.158 36.124,154.126 36.361,153.163 36.657 M236.429 36.790 C 236.826 36.960,237.394 37.100,237.692 37.100 C 238.033 37.100,237.966 36.985,237.511 36.790 C 237.115 36.619,236.546 36.480,236.249 36.480 C 235.908 36.480,235.975 36.595,236.429 36.790 M148.963 38.052 C 148.269 38.320,147.944 38.543,148.242 38.550 C 148.539 38.556,149.270 38.338,149.865 38.065 C 151.258 37.427,150.610 37.418,148.963 38.052 M241.659 38.413 C 243.306 39.047,243.954 39.038,242.561 38.400 C 241.966 38.127,241.235 37.910,240.938 37.916 C 240.640 37.922,240.965 38.146,241.659 38.413 M144.342 39.561 C 143.486 39.864,142.850 40.175,142.928 40.253 C 143.093 40.417,146.438 39.319,146.438 39.100 C 146.438 38.875,146.028 38.965,144.342 39.561 M245.266 39.675 C 245.564 39.868,246.050 40.025,246.348 40.025 C 246.829 40.025,246.829 39.986,246.348 39.675 C 246.050 39.483,245.564 39.326,245.266 39.326 C 244.785 39.326,244.785 39.365,245.266 39.675 M140.487 41.098 C 139.693 41.474,139.206 41.782,139.405 41.784 C 139.897 41.787,142.743 40.455,142.290 40.433 C 142.092 40.423,141.280 40.723,140.487 41.098 M136.880 42.567 C 136.075 42.962,135.836 43.178,136.339 43.054 C 137.393 42.794,139.212 41.871,138.683 41.863 C 138.485 41.861,137.674 42.177,136.880 42.567 M133.904 43.820 C 133.260 44.100,132.732 44.415,132.732 44.519 C 132.732 44.742,134.559 44.000,135.059 43.574 C 135.532 43.171,135.270 43.227,133.904 43.820 M256.447 44.184 C 256.943 44.467,257.511 44.699,257.710 44.699 C 257.908 44.699,257.665 44.467,257.169 44.184 C 256.673 43.900,256.105 43.668,255.906 43.668 C 255.708 43.668,255.951 43.900,256.447 44.184 M130.929 45.266 C 130.433 45.550,130.189 45.781,130.388 45.781 C 130.586 45.781,131.154 45.550,131.650 45.266 C 132.146 44.982,132.390 44.751,132.191 44.751 C 131.993 44.751,131.425 44.982,130.929 45.266 M125.068 48.177 C 123.719 48.909,123.801 49.214,125.158 48.512 C 125.753 48.204,126.240 47.876,126.240 47.782 C 126.240 47.549,126.201 47.563,125.068 48.177 M271.776 52.126 C 272.173 52.449,272.822 52.872,273.219 53.067 L 273.940 53.421 273.219 52.834 C 272.822 52.511,272.173 52.087,271.776 51.892 L 271.055 51.538 271.776 52.126 M115.509 53.784 C 114.280 54.571,113.882 55.100,114.968 54.503 C 115.796 54.048,117.092 53.045,116.862 53.038 C 116.763 53.035,116.154 53.371,115.509 53.784 M275.924 54.617 C 275.924 54.716,276.898 55.459,278.088 56.267 C 279.279 57.075,280.252 57.655,280.252 57.556 C 280.252 57.457,279.279 56.715,278.088 55.906 C 276.898 55.098,275.924 54.518,275.924 54.617 M112.844 55.566 C 112.038 56.269,112.034 56.287,112.784 55.925 C 113.220 55.714,113.675 55.380,113.797 55.183 C 114.152 54.609,113.763 54.765,112.844 55.566 M106.943 59.725 L 105.861 60.655 107.033 59.879 C 107.678 59.452,108.206 59.033,108.206 58.947 C 108.206 58.677,108.053 58.772,106.943 59.725 M284.761 60.856 C 285.594 61.703,292.955 67.506,292.725 67.135 C 292.448 66.685,285.799 61.266,284.941 60.790 C 284.576 60.587,284.518 60.609,284.761 60.856 M99.129 65.819 C 97.410 67.294,95.887 68.688,95.746 68.917 C 95.604 69.146,97.051 67.991,98.962 66.350 C 102.037 63.708,102.680 63.097,102.344 63.128 C 102.295 63.133,100.848 64.344,99.129 65.819 M299.232 73.411 C 302.431 76.579,306.224 80.469,307.663 82.056 C 309.101 83.643,309.836 84.373,309.295 83.679 C 307.388 81.232,300.162 73.724,296.810 70.706 C 294.637 68.750,295.507 69.722,299.232 73.411 M92.684 71.686 L 90.712 73.760 92.786 71.789 C 94.713 69.957,95.025 69.612,94.758 69.612 C 94.701 69.612,93.768 70.546,92.684 71.686 M85.470 78.900 L 83.499 80.974 85.573 79.002 C 87.499 77.171,87.812 76.826,87.544 76.826 C 87.488 76.826,86.554 77.759,85.470 78.900 M81.898 82.750 L 80.659 84.220 82.061 82.879 C 82.832 82.142,83.390 81.480,83.300 81.409 C 83.211 81.338,82.580 81.941,81.898 82.750 M311.772 87.032 C 312.536 87.965,313.237 88.729,313.329 88.729 C 313.575 88.729,311.291 85.898,310.800 85.594 C 310.570 85.452,311.007 86.099,311.772 87.032 M77.301 88.278 C 75.295 90.740,74.914 91.253,75.094 91.253 C 75.182 91.253,76.099 90.198,77.133 88.909 C 78.166 87.619,78.940 86.564,78.854 86.564 C 78.767 86.564,78.068 87.335,77.301 88.278 M73.671 92.967 C 72.458 94.526,72.024 95.221,72.262 95.221 C 72.355 95.221,73.013 94.409,73.726 93.417 C 75.240 91.310,75.201 90.998,73.671 92.967 M316.682 93.417 C 317.105 94.013,317.533 94.500,317.633 94.500 C 317.732 94.500,317.466 94.013,317.042 93.417 C 316.619 92.822,316.191 92.335,316.092 92.335 C 315.992 92.335,316.258 92.822,316.682 93.417 M318.878 96.393 C 319.523 97.335,320.109 98.106,320.182 98.106 C 320.427 98.106,319.609 96.851,318.654 95.762 C 317.937 94.943,317.991 95.096,318.878 96.393 M71.055 96.664 C 70.631 97.259,70.366 97.746,70.465 97.746 C 70.564 97.746,70.992 97.259,71.416 96.664 C 71.839 96.069,72.105 95.582,72.006 95.582 C 71.907 95.582,71.479 96.069,71.055 96.664 M68.031 101.172 C 67.710 101.668,67.185 102.520,66.864 103.066 L 66.280 104.058 67.006 103.180 C 67.863 102.143,69.000 100.271,68.772 100.271 C 68.685 100.271,68.351 100.676,68.031 101.172 M65.464 105.320 C 65.157 105.915,64.986 106.402,65.085 106.402 C 65.184 106.402,65.517 105.915,65.825 105.320 C 66.133 104.725,66.303 104.238,66.204 104.238 C 66.105 104.238,65.772 104.725,65.464 105.320 M327.683 110.730 C 328.185 111.722,328.678 112.534,328.777 112.534 C 328.876 112.534,328.546 111.722,328.043 110.730 C 327.541 109.739,327.048 108.927,326.949 108.927 C 326.850 108.927,327.180 109.739,327.683 110.730 M62.579 110.370 C 62.271 110.965,62.101 111.452,62.200 111.452 C 62.299 111.452,62.632 110.965,62.940 110.370 C 63.247 109.775,63.418 109.288,63.319 109.288 C 63.220 109.288,62.887 109.775,62.579 110.370 M332.217 119.567 C 332.217 119.766,332.449 120.334,332.732 120.830 C 333.016 121.326,333.248 121.569,333.248 121.371 C 333.248 121.172,333.016 120.604,332.732 120.108 C 332.449 119.612,332.217 119.369,332.217 119.567 M55.410 125.150 C 54.596 127.184,54.722 127.487,55.579 125.556 C 55.965 124.684,56.218 123.906,56.139 123.828 C 56.061 123.749,55.733 124.344,55.410 125.150 M335.283 126.601 C 335.416 127.096,335.675 127.746,335.859 128.043 C 336.091 128.419,336.120 128.309,335.952 127.683 C 335.819 127.187,335.560 126.537,335.376 126.240 C 335.144 125.864,335.116 125.974,335.283 126.601 M53.782 129.165 C 53.560 129.803,53.441 130.387,53.518 130.465 C 53.596 130.542,53.841 130.083,54.063 129.446 C 54.285 128.809,54.404 128.224,54.326 128.147 C 54.249 128.070,54.004 128.528,53.782 129.165 M336.726 130.207 C 336.859 130.703,337.118 131.353,337.302 131.650 C 337.534 132.026,337.562 131.916,337.395 131.289 C 337.262 130.794,337.003 130.144,336.819 129.847 C 336.587 129.471,336.559 129.581,336.726 130.207 M52.521 132.593 C 52.202 133.531,52.003 134.360,52.080 134.436 C 52.156 134.512,52.479 133.808,52.799 132.871 C 53.118 131.934,53.317 131.105,53.241 131.028 C 53.164 130.952,52.841 131.656,52.521 132.593 M338.019 133.634 C 338.018 133.832,338.236 134.563,338.503 135.257 C 338.771 135.951,338.994 136.276,339.000 135.978 C 339.007 135.681,338.789 134.950,338.516 134.355 C 338.244 133.760,338.020 133.436,338.019 133.634 M50.929 137.313 C 50.395 139.052,50.653 139.310,51.217 137.601 C 51.455 136.881,51.580 136.221,51.494 136.135 C 51.408 136.049,51.154 136.579,50.929 137.313 M339.816 139.225 C 339.816 139.522,339.956 140.090,340.126 140.487 C 340.322 140.942,340.436 141.008,340.436 140.667 C 340.436 140.370,340.297 139.802,340.126 139.405 C 339.931 138.950,339.816 138.884,339.816 139.225 M49.414 142.110 C 48.882 144.084,49.164 144.366,49.742 142.438 C 49.986 141.624,50.104 140.876,50.004 140.776 C 49.904 140.676,49.638 141.276,49.414 142.110 M341.077 143.733 C 341.456 145.449,341.973 146.480,341.710 144.995 C 341.587 144.301,341.340 143.490,341.162 143.192 C 340.950 142.838,340.920 143.026,341.077 143.733 M48.151 146.799 C 48.015 147.422,47.978 148.008,48.070 148.100 C 48.161 148.192,48.340 147.748,48.467 147.115 C 48.768 145.611,48.476 145.320,48.151 146.799 M342.723 149.865 C 342.723 150.261,342.853 150.992,343.012 151.488 C 343.240 152.202,343.301 152.239,343.301 151.668 C 343.301 151.271,343.171 150.541,343.012 150.045 C 342.783 149.331,342.723 149.294,342.723 149.865 M46.709 152.931 C 46.570 153.751,46.532 154.498,46.625 154.590 C 46.717 154.683,46.901 154.082,47.033 153.255 C 47.166 152.429,47.203 151.682,47.117 151.596 C 47.031 151.510,46.847 152.110,46.709 152.931 M344.172 156.718 C 344.169 157.313,344.296 158.206,344.454 158.702 L 344.743 159.603 344.737 158.702 C 344.733 158.206,344.606 157.313,344.454 156.718 L 344.179 155.636 344.172 156.718 M45.252 160.671 C 45.113 161.788,45.080 162.783,45.179 162.882 C 45.278 162.982,45.473 162.149,45.613 161.032 C 45.752 159.915,45.785 158.920,45.686 158.821 C 45.587 158.722,45.392 159.555,45.252 160.671 M345.611 165.555 C 345.600 166.249,345.720 167.547,345.879 168.440 C 346.269 170.633,346.300 168.573,345.914 166.096 C 345.684 164.621,345.629 164.522,345.611 165.555 M43.822 172.120 C 43.684 173.775,43.633 175.531,43.709 176.023 C 43.785 176.514,43.972 175.234,44.125 173.178 C 44.278 171.123,44.329 169.366,44.238 169.275 C 44.147 169.185,43.960 170.464,43.822 172.120 M346.342 172.408 C 346.342 173.102,346.416 173.386,346.507 173.039 C 346.597 172.692,346.597 172.124,346.507 171.776 C 346.416 171.429,346.342 171.713,346.342 172.408 M346.737 178.720 C 346.739 180.108,346.804 180.632,346.882 179.884 C 346.960 179.135,346.959 177.999,346.879 177.359 C 346.799 176.719,346.735 177.331,346.737 178.720 M43.410 180.884 C 43.409 182.669,43.470 183.445,43.546 182.608 C 43.621 181.771,43.622 180.310,43.548 179.362 C 43.473 178.413,43.411 179.098,43.410 180.884 M347.118 186.474 C 347.118 188.954,347.176 189.968,347.246 188.729 C 347.317 187.489,347.317 185.460,347.246 184.220 C 347.176 182.980,347.118 183.995,347.118 186.474 M43.408 192.245 C 43.408 193.931,43.470 194.621,43.546 193.778 C 43.622 192.935,43.622 191.555,43.546 190.712 C 43.470 189.869,43.408 190.559,43.408 192.245 M346.737 194.590 C 346.739 195.978,346.804 196.502,346.882 195.754 C 346.960 195.006,346.959 193.869,346.879 193.229 C 346.799 192.589,346.735 193.201,346.737 194.590 M43.679 198.227 C 43.698 199.400,43.844 201.253,44.003 202.344 C 44.201 203.696,44.232 203.064,44.101 200.361 C 43.896 196.105,43.620 194.710,43.679 198.227 M346.349 200.721 C 346.353 201.515,346.427 201.797,346.513 201.348 C 346.599 200.900,346.596 200.250,346.506 199.906 C 346.415 199.561,346.345 199.928,346.349 200.721 M345.739 205.613 C 345.600 207.028,345.561 208.260,345.653 208.352 C 345.745 208.444,345.936 207.363,346.078 205.951 C 346.219 204.539,346.258 203.307,346.164 203.213 C 346.070 203.118,345.879 204.199,345.739 205.613 M45.170 211.181 C 45.170 211.776,45.295 212.750,45.446 213.345 C 45.828 214.845,45.845 213.369,45.467 211.542 C 45.216 210.329,45.169 210.271,45.170 211.181 M46.600 219.297 C 46.600 219.793,46.730 220.604,46.889 221.100 L 47.178 222.002 47.178 221.100 C 47.178 220.604,47.048 219.793,46.889 219.297 L 46.600 218.395 46.600 219.297 M48.022 225.609 C 48.022 226.005,48.161 226.655,48.332 227.051 L 48.642 227.773 48.642 227.051 C 48.642 226.655,48.502 226.005,48.332 225.609 L 48.022 224.887 48.022 225.609 M341.414 228.159 C 341.282 228.688,341.243 229.190,341.328 229.275 C 341.413 229.360,341.591 228.997,341.724 228.468 C 341.856 227.940,341.895 227.438,341.810 227.353 C 341.725 227.268,341.547 227.631,341.414 228.159 M49.465 230.839 C 49.465 231.136,49.604 231.704,49.775 232.101 C 49.970 232.556,50.085 232.622,50.085 232.281 C 50.085 231.984,49.945 231.416,49.775 231.019 C 49.579 230.564,49.465 230.498,49.465 230.839 M339.838 233.616 C 339.613 234.350,339.488 235.009,339.561 235.082 C 339.634 235.155,339.888 234.625,340.126 233.904 C 340.364 233.184,340.489 232.524,340.403 232.438 C 340.317 232.352,340.063 232.882,339.838 233.616 M50.553 234.626 C 50.552 234.824,50.770 235.555,51.037 236.249 C 51.304 236.943,51.528 237.268,51.534 236.970 C 51.540 236.673,51.323 235.942,51.050 235.347 C 50.777 234.752,50.554 234.427,50.553 234.626 M52.145 239.495 C 52.278 239.991,52.537 240.640,52.721 240.938 C 52.953 241.314,52.982 241.204,52.814 240.577 C 52.681 240.081,52.422 239.432,52.239 239.134 C 52.006 238.758,51.978 238.868,52.145 239.495 M337.060 241.659 C 336.925 242.086,336.895 242.516,336.995 242.615 C 337.094 242.714,337.286 242.446,337.421 242.020 C 337.557 241.593,337.586 241.163,337.487 241.064 C 337.388 240.965,337.196 241.232,337.060 241.659 M53.949 244.184 C 54.082 244.680,54.340 245.329,54.524 245.627 C 54.757 246.003,54.785 245.893,54.617 245.266 C 54.485 244.770,54.226 244.121,54.042 243.823 C 53.810 243.447,53.781 243.557,53.949 244.184 M54.824 246.424 C 54.824 246.813,55.920 249.234,56.096 249.234 C 56.195 249.234,56.026 248.633,55.719 247.900 C 55.179 246.606,54.824 246.021,54.824 246.424 M334.053 249.429 C 333.449 250.756,333.564 251.039,334.218 249.833 C 334.523 249.270,334.705 248.742,334.622 248.659 C 334.540 248.577,334.284 248.923,334.053 249.429 M56.678 251.025 C 56.888 251.628,57.199 252.207,57.370 252.312 C 57.541 252.418,57.509 252.012,57.299 251.409 C 57.089 250.807,56.777 250.228,56.607 250.122 C 56.436 250.017,56.468 250.423,56.678 251.025 M332.610 252.676 C 332.006 254.002,332.121 254.285,332.775 253.079 C 333.080 252.516,333.262 251.988,333.180 251.905 C 333.097 251.823,332.841 252.169,332.610 252.676 M57.735 253.021 C 57.735 253.219,57.967 253.787,58.251 254.283 C 58.534 254.779,58.766 255.023,58.766 254.824 C 58.766 254.626,58.534 254.058,58.251 253.562 C 57.967 253.066,57.735 252.822,57.735 253.021 M328.404 261.136 C 328.096 261.731,327.926 262.218,328.025 262.218 C 328.124 262.218,328.457 261.731,328.765 261.136 C 329.072 260.541,329.243 260.054,329.144 260.054 C 329.045 260.054,328.712 260.541,328.404 261.136 M62.399 262.579 C 62.803 263.372,63.216 264.022,63.315 264.022 C 63.414 264.022,63.164 263.372,62.759 262.579 C 62.354 261.785,61.942 261.136,61.843 261.136 C 61.744 261.136,61.994 261.785,62.399 262.579 M326.601 264.382 C 326.293 264.977,326.122 265.464,326.221 265.464 C 326.321 265.464,326.653 264.977,326.961 264.382 C 327.269 263.787,327.440 263.300,327.340 263.300 C 327.241 263.300,326.908 263.787,326.601 264.382 M64.022 265.464 C 64.329 266.060,64.662 266.546,64.762 266.546 C 64.861 266.546,64.690 266.060,64.382 265.464 C 64.075 264.869,63.742 264.382,63.642 264.382 C 63.543 264.382,63.714 264.869,64.022 265.464 M325.158 266.907 C 324.850 267.502,324.679 267.989,324.779 267.989 C 324.878 267.989,325.211 267.502,325.518 266.907 C 325.826 266.312,325.997 265.825,325.898 265.825 C 325.799 265.825,325.466 266.312,325.158 266.907 M66.320 269.252 C 66.515 269.648,66.938 270.298,67.261 270.694 L 67.849 271.416 67.494 270.694 C 67.300 270.298,66.876 269.648,66.553 269.252 L 65.966 268.530 66.320 269.252 M319.345 276.008 C 317.882 278.154,317.573 278.799,318.562 277.643 C 319.478 276.572,320.784 274.482,320.537 274.482 C 320.453 274.482,319.916 275.168,319.345 276.008 M73.241 279.688 C 73.873 280.567,74.866 281.825,75.448 282.483 C 76.030 283.141,75.585 282.421,74.459 280.884 C 73.332 279.346,72.339 278.088,72.251 278.088 C 72.164 278.088,72.609 278.808,73.241 279.688 M315.910 280.884 C 314.872 282.136,314.433 282.777,314.611 282.777 C 314.711 282.777,315.226 282.209,315.756 281.515 C 316.738 280.226,316.857 279.740,315.910 280.884 M310.150 288.097 C 308.697 289.833,307.770 291.045,308.089 290.790 C 308.791 290.230,313.194 284.941,312.958 284.941 C 312.867 284.941,311.603 286.362,310.150 288.097 M81.198 289.623 C 82.265 290.908,85.573 294.408,88.548 297.401 C 93.880 302.763,93.890 302.771,89.253 297.950 C 86.665 295.259,83.357 291.758,81.902 290.171 C 79.745 287.817,79.615 287.716,81.198 289.623 M305.127 293.868 L 303.156 295.942 305.230 293.971 C 307.157 292.139,307.469 291.794,307.201 291.794 C 307.145 291.794,306.212 292.728,305.127 293.868 M296.462 302.534 L 294.500 304.598 296.476 302.795 C 297.563 301.803,298.523 300.951,298.610 300.902 C 298.697 300.852,298.691 300.734,298.596 300.640 C 298.502 300.546,297.542 301.398,296.462 302.534 M95.762 304.418 C 96.537 305.212,97.252 305.861,97.351 305.861 C 97.450 305.861,96.897 305.212,96.123 304.418 C 95.348 303.625,94.633 302.976,94.533 302.976 C 94.434 302.976,94.987 303.625,95.762 304.418 M292.673 305.951 L 291.614 307.124 292.786 306.064 C 293.431 305.482,293.959 304.954,293.959 304.892 C 293.959 304.613,293.661 304.859,292.673 305.951 M98.106 306.401 C 98.571 306.972,104.451 311.748,106.041 312.847 C 107.410 313.792,105.558 312.181,101.713 309.081 C 99.432 307.242,97.809 306.036,98.106 306.401 M284.040 312.743 C 281.900 314.361,281.612 314.817,283.618 313.410 C 285.134 312.348,285.959 311.609,285.594 311.642 C 285.533 311.648,284.833 312.143,284.040 312.743 M108.206 314.288 C 108.206 314.387,108.693 314.815,109.288 315.239 C 109.883 315.663,110.370 315.928,110.370 315.829 C 110.370 315.730,109.883 315.302,109.288 314.878 C 108.693 314.454,108.206 314.189,108.206 314.288 M279.753 315.776 C 278.784 316.447,277.810 317.191,277.589 317.430 C 277.368 317.669,278.201 317.187,279.441 316.358 C 280.681 315.530,281.695 314.776,281.695 314.684 C 281.695 314.437,281.661 314.456,279.753 315.776 M110.887 316.283 C 111.021 316.500,111.466 316.857,111.876 317.076 C 112.410 317.362,112.552 317.363,112.377 317.080 C 112.243 316.863,111.798 316.506,111.388 316.287 C 110.854 316.001,110.712 316.000,110.887 316.283 M275.377 318.716 C 273.536 319.936,272.888 320.580,274.325 319.760 C 275.590 319.038,277.278 317.784,277.000 317.772 C 276.897 317.767,276.167 318.192,275.377 318.716 M270.063 321.938 C 268.715 322.669,268.797 322.974,270.153 322.272 C 270.748 321.965,271.235 321.636,271.235 321.542 C 271.235 321.310,271.197 321.323,270.063 321.938 M119.748 321.893 C 119.748 321.992,120.234 322.325,120.830 322.633 C 121.425 322.941,121.912 323.111,121.912 323.012 C 121.912 322.913,121.425 322.580,120.830 322.272 C 120.234 321.965,119.748 321.794,119.748 321.893 M267.538 323.380 C 266.190 324.112,266.272 324.417,267.628 323.715 C 268.224 323.407,268.711 323.079,268.711 322.984 C 268.711 322.752,268.672 322.765,267.538 323.380 M122.272 323.336 C 122.272 323.435,122.759 323.768,123.354 324.076 C 123.950 324.383,124.436 324.554,124.436 324.455 C 124.436 324.356,123.950 324.023,123.354 323.715 C 122.759 323.407,122.272 323.237,122.272 323.336 M264.022 325.338 C 263.327 325.718,262.889 326.036,263.048 326.044 C 263.430 326.064,265.464 325.007,265.464 324.788 C 265.464 324.552,265.443 324.560,264.022 325.338 M261.136 326.781 C 260.442 327.161,260.004 327.479,260.162 327.487 C 260.544 327.507,262.579 326.449,262.579 326.231 C 262.579 325.995,262.558 326.003,261.136 326.781 M133.502 329.114 C 133.805 329.417,136.339 330.402,136.339 330.217 C 136.339 330.118,135.751 329.791,135.033 329.491 C 133.702 328.935,133.199 328.811,133.502 329.114 M251.578 331.135 C 250.784 331.517,250.541 331.728,251.037 331.604 C 252.058 331.350,253.933 330.410,253.381 330.429 C 253.183 330.436,252.372 330.753,251.578 331.135 M138.503 331.289 C 138.999 331.573,139.567 331.805,139.766 331.805 C 139.964 331.805,139.720 331.573,139.225 331.289 C 138.729 331.006,138.161 330.774,137.962 330.774 C 137.764 330.774,138.007 331.006,138.503 331.289 M140.667 332.130 C 140.965 332.314,141.614 332.573,142.110 332.706 C 142.737 332.873,142.847 332.845,142.471 332.613 C 142.173 332.429,141.524 332.170,141.028 332.037 C 140.401 331.870,140.291 331.898,140.667 332.130 M247.610 332.745 C 246.709 333.179,246.679 333.229,247.430 333.046 C 248.452 332.796,249.601 332.210,249.053 332.218 C 248.855 332.221,248.206 332.458,247.610 332.745 M144.635 333.573 C 144.932 333.757,145.582 334.016,146.078 334.149 C 146.704 334.316,146.814 334.288,146.438 334.055 C 146.141 333.872,145.491 333.613,144.995 333.480 C 144.369 333.312,144.259 333.341,144.635 333.573 M243.643 334.188 C 242.741 334.622,242.711 334.672,243.463 334.488 C 244.485 334.239,245.633 333.653,245.086 333.661 C 244.887 333.664,244.238 333.901,243.643 334.188 M150.406 335.618 C 152.053 336.252,152.700 336.242,151.307 335.605 C 150.712 335.332,149.982 335.114,149.684 335.120 C 149.387 335.126,149.711 335.350,150.406 335.618 M154.554 336.832 C 154.950 337.005,155.843 337.250,156.537 337.376 C 157.404 337.533,157.574 337.506,157.078 337.289 C 156.682 337.116,155.789 336.871,155.095 336.745 C 154.228 336.588,154.058 336.615,154.554 336.832 M234.626 336.880 C 234.171 337.075,234.104 337.190,234.445 337.190 C 234.743 337.190,235.311 337.051,235.708 336.880 C 236.163 336.685,236.229 336.570,235.888 336.570 C 235.591 336.570,235.023 336.710,234.626 336.880 M160.144 338.323 C 160.640 338.482,161.371 338.612,161.767 338.612 C 162.339 338.612,162.301 338.551,161.587 338.323 C 161.091 338.164,160.361 338.034,159.964 338.034 C 159.393 338.034,159.430 338.094,160.144 338.323 M229.035 338.323 C 228.310 338.555,228.275 338.614,228.855 338.622 C 229.252 338.628,229.901 338.493,230.298 338.323 C 231.217 337.928,230.268 337.928,229.035 338.323 M166.817 339.766 C 167.412 339.917,168.305 340.041,168.801 340.041 C 169.605 340.041,169.586 340.011,168.620 339.766 C 168.025 339.614,167.133 339.490,166.637 339.490 C 165.832 339.490,165.852 339.520,166.817 339.766 M175.834 341.229 C 176.628 341.393,177.926 341.515,178.720 341.500 C 180.133 341.473,180.125 341.467,178.359 341.192 C 175.795 340.792,173.861 340.821,175.834 341.229 M211.276 341.463 C 211.724 341.550,212.374 341.546,212.718 341.456 C 213.063 341.366,212.696 341.295,211.903 341.299 C 211.109 341.303,210.827 341.377,211.276 341.463 M181.154 341.818 C 181.501 341.908,182.069 341.908,182.417 341.818 C 182.764 341.727,182.480 341.653,181.785 341.653 C 181.091 341.653,180.807 341.727,181.154 341.818 M208.029 341.824 C 208.478 341.910,209.127 341.907,209.472 341.817 C 209.817 341.727,209.450 341.656,208.656 341.660 C 207.863 341.664,207.581 341.738,208.029 341.824 M186.745 342.191 C 187.390 342.271,188.445 342.271,189.089 342.191 C 189.734 342.111,189.206 342.045,187.917 342.045 C 186.628 342.045,186.100 342.111,186.745 342.191 M201.172 342.191 C 201.817 342.271,202.872 342.271,203.517 342.191 C 204.161 342.111,203.634 342.045,202.344 342.045 C 201.055 342.045,200.528 342.111,201.172 342.191 " stroke="none" fill="#18882e" fill-rule="evenodd"></path><path id="path4" d="M172.047 33.120 C 172.047 33.580,177.442 43.957,177.451 43.513 C 177.454 43.342,176.240 40.848,174.752 37.970 C 173.264 35.092,172.047 32.910,172.047 33.120 M162.370 35.167 C 162.364 35.564,162.499 36.213,162.669 36.610 C 163.064 37.529,163.064 36.580,162.669 35.347 C 162.437 34.622,162.378 34.587,162.370 35.167 M163.030 37.659 C 163.030 38.302,164.569 40.423,165.316 40.809 C 166.011 41.168,165.994 41.099,165.159 40.173 C 164.644 39.602,163.954 38.733,163.626 38.243 C 163.298 37.752,163.030 37.489,163.030 37.659 M166.501 43.643 C 166.627 44.337,166.872 45.230,167.046 45.627 C 167.263 46.122,167.290 45.952,167.133 45.086 C 167.007 44.391,166.762 43.499,166.588 43.102 C 166.371 42.607,166.344 42.776,166.501 43.643 M177.818 44.891 C 177.818 45.301,181.437 51.939,181.661 51.939 C 181.819 51.939,178.335 45.197,177.949 44.755 C 177.877 44.672,177.818 44.733,177.818 44.891 M167.587 47.250 C 167.708 47.746,168.030 48.638,168.301 49.234 C 168.696 50.103,168.750 50.138,168.572 49.414 C 168.450 48.918,168.129 48.025,167.858 47.430 C 167.462 46.561,167.409 46.526,167.587 47.250 M168.826 50.579 C 168.785 51.006,169.960 53.785,170.116 53.629 C 170.194 53.551,169.942 52.773,169.555 51.901 C 169.168 51.029,168.840 50.434,168.826 50.579 M183.048 54.824 C 183.747 56.213,184.400 57.349,184.500 57.349 C 184.599 57.349,184.108 56.213,183.408 54.824 C 182.709 53.436,182.056 52.299,181.957 52.299 C 181.857 52.299,182.348 53.436,183.048 54.824 M170.622 54.898 C 170.592 55.330,172.859 59.903,173.022 59.740 C 173.107 59.655,172.605 58.474,171.908 57.115 C 171.210 55.756,170.632 54.758,170.622 54.898 M186.724 61.317 C 187.281 62.309,188.040 63.486,188.411 63.932 L 189.085 64.743 188.561 63.841 C 188.272 63.345,187.588 62.169,187.041 61.226 C 186.493 60.284,185.970 59.513,185.878 59.513 C 185.786 59.513,186.167 60.325,186.724 61.317 M173.511 61.021 C 173.484 61.328,179.596 72.187,180.072 72.678 C 180.583 73.204,179.293 70.728,176.598 66.005 C 173.851 61.193,173.540 60.689,173.511 61.021 M191.838 69.793 C 192.033 70.189,192.457 70.839,192.780 71.235 L 193.367 71.957 193.013 71.235 C 192.818 70.839,192.394 70.189,192.071 69.793 L 191.484 69.071 191.838 69.793 M193.642 72.678 C 193.836 73.075,194.260 73.724,194.583 74.121 L 195.171 74.842 194.816 74.121 C 194.622 73.724,194.198 73.075,193.875 72.678 L 193.288 71.957 193.642 72.678 M181.064 74.662 C 181.469 75.455,181.881 76.105,181.980 76.105 C 182.080 76.105,181.830 75.455,181.425 74.662 C 181.020 73.868,180.608 73.219,180.508 73.219 C 180.409 73.219,180.659 73.868,181.064 74.662 M195.692 76.014 C 197.873 79.371,198.860 80.794,199.010 80.794 C 199.104 80.794,198.891 80.347,198.537 79.802 C 196.356 76.445,195.369 75.023,195.219 75.023 C 195.125 75.023,195.338 75.469,195.692 76.014 M183.579 79.170 C 187.431 86.354,191.589 93.778,191.762 93.778 C 191.866 93.778,191.348 92.683,190.611 91.344 C 189.874 90.005,187.810 86.231,186.024 82.958 C 184.238 79.684,182.609 76.844,182.404 76.646 C 182.200 76.447,182.729 77.583,183.579 79.170 M204.128 88.638 C 205.331 90.374,206.735 92.281,207.248 92.876 C 207.829 93.549,207.714 93.276,206.946 92.155 C 204.128 88.045,202.271 85.482,202.111 85.482 C 202.018 85.482,202.925 86.903,204.128 88.638 M192.809 95.852 C 199.942 108.163,205.841 116.357,216.244 128.404 C 219.071 131.677,222.172 135.278,223.135 136.406 C 224.099 137.533,225.021 138.467,225.185 138.480 C 225.349 138.493,224.233 137.083,222.705 135.347 C 207.195 117.726,201.962 110.761,193.705 96.754 C 192.857 95.316,192.085 94.139,191.990 94.139 C 191.894 94.139,192.263 94.910,192.809 95.852 M209.147 95.688 C 209.775 96.601,210.480 97.466,210.713 97.610 C 210.946 97.754,210.582 97.100,209.904 96.156 C 208.300 93.923,207.660 93.527,209.147 95.688 M213.148 101.082 C 213.758 101.925,214.835 103.264,215.541 104.058 C 216.247 104.851,215.832 104.161,214.618 102.525 C 213.404 100.888,212.327 99.549,212.225 99.549 C 212.122 99.549,212.537 100.239,213.148 101.082 M218.351 107.665 C 219.252 108.855,220.496 110.397,221.115 111.091 C 221.734 111.785,221.504 111.380,220.603 110.189 C 219.702 108.999,218.458 107.457,217.839 106.763 C 217.220 106.069,217.450 106.474,218.351 107.665 M224.774 115.687 C 229.426 121.391,243.509 137.076,243.775 136.849 C 243.847 136.787,242.060 134.740,239.804 132.300 C 235.116 127.231,229.311 120.653,225.464 116.050 C 224.013 114.315,222.752 112.894,222.661 112.894 C 222.571 112.894,223.521 114.151,224.774 115.687 M60.800 114.377 C 60.999 114.699,63.544 115.476,63.744 115.276 C 63.812 115.208,63.136 114.912,62.243 114.618 C 61.349 114.324,60.700 114.215,60.800 114.377 M66.967 117.300 C 68.521 118.334,71.903 121.223,74.482 123.720 C 77.060 126.216,80.818 129.585,82.831 131.205 C 84.845 132.826,87.928 135.475,89.684 137.092 L 92.876 140.033 89.621 136.833 C 87.831 135.074,84.260 131.910,81.686 129.802 C 79.112 127.695,75.911 124.821,74.573 123.416 C 71.264 119.944,65.540 115.426,64.442 115.421 C 64.277 115.420,65.413 116.265,66.967 117.300 M57.710 124.158 C 57.710 124.252,59.333 125.578,61.317 127.106 C 63.300 128.634,64.923 129.803,64.923 129.705 C 64.923 129.606,63.503 128.432,61.767 127.095 C 57.569 123.861,57.710 123.964,57.710 124.158 M65.284 129.962 C 65.284 130.052,66.461 131.071,67.899 132.226 C 69.337 133.380,70.311 134.072,70.063 133.762 C 69.534 133.101,65.284 129.722,65.284 129.962 M74.121 137.481 C 78.659 141.711,82.759 145.798,86.182 149.504 C 87.648 151.091,90.245 153.850,91.953 155.636 C 93.661 157.421,97.083 161.154,99.557 163.931 C 102.032 166.709,106.262 171.253,108.958 174.031 C 111.654 176.808,115.820 181.271,118.214 183.950 C 120.609 186.628,125.919 192.208,130.014 196.351 C 137.860 204.289,140.875 207.776,147.512 216.592 C 151.157 221.433,155.121 226.181,159.198 230.589 C 161.725 233.321,159.676 230.781,156.074 226.715 C 154.132 224.524,150.212 219.646,147.363 215.874 C 140.487 206.773,138.096 204.032,128.512 194.259 C 124.054 189.713,119.091 184.520,117.483 182.717 C 115.875 180.915,111.856 176.601,108.552 173.129 C 105.248 169.657,101.183 165.275,99.520 163.390 C 97.857 161.506,94.865 158.260,92.872 156.177 C 90.878 154.094,87.224 150.215,84.750 147.557 C 82.276 144.899,78.061 140.788,75.383 138.421 C 71.920 135.361,71.555 135.089,74.121 137.481 M247.992 141.479 C 250.163 143.711,252.101 145.597,252.299 145.672 C 252.498 145.746,250.875 143.943,248.693 141.664 C 246.510 139.386,244.572 137.499,244.385 137.471 C 244.198 137.444,245.821 139.247,247.992 141.479 M227.830 141.659 C 229.186 143.197,232.223 146.646,234.579 149.324 C 242.187 157.971,251.288 166.563,260.778 174.058 C 263.058 175.858,269.387 180.788,274.842 185.014 C 280.298 189.240,284.964 192.859,285.212 193.057 C 285.460 193.254,285.663 193.327,285.663 193.218 C 285.663 193.109,281.321 189.651,276.014 185.534 C 259.648 172.837,257.139 170.833,252.377 166.650 C 245.778 160.854,239.912 154.906,232.350 146.343 C 228.718 142.229,225.660 138.864,225.555 138.864 C 225.450 138.864,226.473 140.122,227.830 141.659 M93.057 140.060 C 93.057 140.160,94.152 141.098,95.491 142.145 C 98.334 144.369,101.098 146.787,107.619 152.757 C 110.223 155.141,116.736 160.975,122.092 165.722 C 140.495 182.031,152.260 194.646,163.736 210.370 C 166.818 214.594,167.358 215.256,167.358 214.813 C 167.358 214.309,155.845 199.468,151.811 194.770 C 144.982 186.819,132.697 174.652,121.371 164.622 C 116.014 159.879,110.410 154.862,108.917 153.472 C 102.730 147.718,93.057 139.538,93.057 140.060 M260.956 154.531 C 265.717 159.166,269.657 162.916,269.712 162.864 C 269.767 162.812,267.343 160.353,264.325 157.399 C 261.307 154.446,257.511 150.690,255.889 149.053 C 254.266 147.417,252.795 146.083,252.619 146.090 C 252.443 146.097,256.195 149.895,260.956 154.531 M273.051 165.974 C 277.069 169.900,292.876 183.878,292.876 183.505 C 292.876 183.410,289.837 180.672,286.122 177.419 C 282.406 174.167,277.253 169.584,274.670 167.236 C 271.716 164.551,271.115 164.083,273.051 165.974 M293.367 183.868 C 293.654 184.332,298.016 187.915,300.271 189.539 C 302.579 191.201,300.944 189.721,296.870 186.460 C 294.801 184.804,293.225 183.637,293.367 183.868 M302.017 190.710 C 302.129 190.892,303.811 192.096,305.755 193.385 C 309.602 195.938,310.584 196.532,310.009 195.960 C 309.391 195.346,301.800 190.359,302.017 190.710 M286.111 193.538 C 286.229 193.728,287.097 194.438,288.041 195.116 C 288.984 195.794,289.660 196.193,289.543 196.002 C 289.425 195.812,288.557 195.102,287.613 194.424 C 286.669 193.746,285.993 193.347,286.111 193.538 M291.029 197.257 C 292.693 198.717,300.859 204.147,303.517 205.560 C 306.095 206.932,305.646 206.608,300.132 203.124 C 297.828 201.668,294.563 199.512,292.876 198.332 C 291.190 197.153,290.359 196.669,291.029 197.257 M311.248 196.866 C 311.730 197.258,312.623 197.853,313.231 198.188 L 314.337 198.798 313.459 198.085 C 312.977 197.693,312.084 197.098,311.476 196.762 L 310.370 196.153 311.248 196.866 M314.518 198.854 C 314.518 199.100,322.003 203.596,330.207 208.278 C 333.580 210.202,336.664 212.065,337.060 212.417 C 337.457 212.770,338.025 213.177,338.323 213.322 C 340.559 214.415,335.372 210.845,331.470 208.605 C 324.657 204.695,316.295 199.814,315.329 199.184 C 314.883 198.893,314.518 198.744,314.518 198.854 M305.861 206.846 C 305.861 206.946,307.484 207.841,309.468 208.837 C 311.452 209.832,313.075 210.566,313.075 210.466 C 313.075 210.367,311.452 209.472,309.468 208.476 C 307.484 207.481,305.861 206.747,305.861 206.846 M313.603 210.980 C 313.708 211.151,314.288 211.462,314.890 211.672 C 315.492 211.882,315.899 211.914,315.793 211.743 C 315.687 211.572,315.108 211.261,314.506 211.051 C 313.904 210.841,313.497 210.809,313.603 210.980 M316.872 212.564 C 317.698 213.122,318.846 213.576,318.846 213.343 C 318.846 213.144,316.819 212.083,316.439 212.083 C 316.286 212.083,316.481 212.299,316.872 212.564 M319.206 213.697 C 319.206 213.796,320.343 214.449,321.731 215.149 C 323.120 215.848,324.256 216.339,324.256 216.240 C 324.256 216.141,323.120 215.487,321.731 214.788 C 320.343 214.089,319.206 213.598,319.206 213.697 M340.307 214.030 C 341.100 214.281,342.292 214.769,342.955 215.115 C 343.618 215.460,344.230 215.674,344.315 215.589 C 344.559 215.345,340.292 213.523,339.540 213.550 C 339.168 213.563,339.513 213.779,340.307 214.030 M167.621 215.780 C 167.815 216.028,169.970 219.152,172.410 222.723 C 176.526 228.746,178.496 231.420,176.928 228.855 C 175.575 226.641,167.667 215.329,167.472 215.329 C 167.361 215.329,167.428 215.532,167.621 215.780 M324.617 216.573 C 324.617 216.672,325.104 217.005,325.699 217.313 C 326.294 217.621,326.781 217.791,326.781 217.692 C 326.781 217.593,326.294 217.260,325.699 216.952 C 325.104 216.644,324.617 216.474,324.617 216.573 M327.142 218.016 C 327.142 218.115,327.628 218.448,328.224 218.756 C 328.819 219.063,329.306 219.234,329.306 219.135 C 329.306 219.036,328.819 218.703,328.224 218.395 C 327.628 218.087,327.142 217.917,327.142 218.016 M329.666 219.469 C 329.666 219.779,332.862 221.102,333.574 221.087 C 333.904 221.080,333.332 220.771,332.302 220.400 C 331.272 220.029,330.258 219.620,330.048 219.490 C 329.838 219.360,329.666 219.351,329.666 219.469 M334.716 221.359 C 335.014 221.471,336.028 221.948,336.970 222.419 C 337.913 222.891,338.683 223.195,338.683 223.096 C 338.683 222.813,335.154 221.097,334.638 221.129 C 334.336 221.147,334.363 221.227,334.716 221.359 M339.766 223.802 C 339.766 224.049,341.974 225.144,342.139 224.979 C 342.217 224.900,341.715 224.566,341.023 224.236 C 340.332 223.906,339.766 223.711,339.766 223.802 M162.347 235.077 C 164.109 237.720,165.325 239.297,164.642 238.052 C 163.984 236.853,160.832 232.281,160.663 232.281 C 160.564 232.281,161.322 233.539,162.347 235.077 M179.351 233.094 C 180.840 235.372,184.025 240.750,184.859 242.397 C 185.358 243.380,185.846 244.184,185.945 244.184 C 186.453 244.184,179.923 232.870,179.135 232.385 C 178.907 232.244,179.004 232.563,179.351 233.094 M165.383 239.699 C 165.718 240.307,166.313 241.200,166.705 241.683 L 167.418 242.561 166.808 241.455 C 166.473 240.847,165.878 239.954,165.486 239.471 L 164.773 238.593 165.383 239.699 M167.672 243.282 C 167.867 243.679,168.291 244.328,168.614 244.725 L 169.201 245.446 168.847 244.725 C 168.652 244.328,168.229 243.679,167.906 243.282 L 167.318 242.561 167.672 243.282 M186.474 245.536 C 186.474 245.709,186.710 246.165,186.997 246.550 C 187.502 247.225,187.513 247.221,187.315 246.433 C 187.109 245.618,186.474 244.941,186.474 245.536 M171.206 249.144 C 171.768 250.186,172.525 251.403,172.888 251.849 C 173.251 252.295,173.089 251.808,172.527 250.766 C 171.965 249.724,171.209 248.507,170.845 248.061 C 170.482 247.615,170.644 248.102,171.206 249.144 M187.588 247.464 C 187.571 247.582,189.170 250.990,191.143 255.038 C 193.116 259.086,194.734 262.236,194.738 262.038 C 194.748 261.628,187.637 247.134,187.588 247.464 M174.031 253.922 C 174.338 254.518,174.671 255.005,174.771 255.005 C 174.870 255.005,174.699 254.518,174.391 253.922 C 174.084 253.327,173.751 252.840,173.651 252.840 C 173.552 252.840,173.723 253.327,174.031 253.922 M176.555 258.251 C 176.863 258.846,177.196 259.333,177.295 259.333 C 177.395 259.333,177.224 258.846,176.916 258.251 C 176.608 257.656,176.275 257.169,176.176 257.169 C 176.077 257.169,176.248 257.656,176.555 258.251 M178.179 261.136 C 178.583 261.930,178.996 262.579,179.095 262.579 C 179.194 262.579,178.944 261.930,178.539 261.136 C 178.134 260.343,177.722 259.693,177.623 259.693 C 177.524 259.693,177.774 260.343,178.179 261.136 M194.797 262.666 C 194.760 263.036,196.984 268.086,197.380 268.530 C 197.787 268.987,197.299 267.728,195.912 264.743 C 195.314 263.454,194.811 262.519,194.797 262.666 M180.418 265.272 C 181.050 266.556,181.628 267.546,181.700 267.473 C 181.862 267.312,179.681 262.940,179.439 262.940 C 179.345 262.940,179.785 263.989,180.418 265.272 M182.172 268.891 C 182.172 269.089,182.404 269.657,182.687 270.153 C 182.971 270.649,183.203 270.893,183.203 270.694 C 183.203 270.496,182.971 269.928,182.687 269.432 C 182.404 268.936,182.172 268.693,182.172 268.891 M197.671 269.111 C 197.647 269.445,200.552 275.564,200.734 275.564 C 200.922 275.564,199.531 272.377,198.450 270.334 C 198.031 269.540,197.680 268.990,197.671 269.111 M183.435 271.957 C 183.568 272.453,183.827 273.102,184.010 273.399 C 184.243 273.775,184.271 273.665,184.103 273.039 C 183.971 272.543,183.712 271.894,183.528 271.596 C 183.296 271.220,183.267 271.330,183.435 271.957 M185.114 276.285 C 185.959 278.598,187.310 281.701,187.424 281.587 C 187.583 281.428,185.495 276.253,185.147 275.947 C 185.020 275.835,185.006 275.987,185.114 276.285 M200.940 276.105 C 200.940 276.303,202.140 278.819,203.607 281.695 C 205.074 284.572,206.274 286.763,206.274 286.564 C 206.274 286.366,205.074 283.850,203.607 280.974 C 202.140 278.097,200.940 275.906,200.940 276.105 M187.587 282.236 C 187.587 282.435,187.898 283.165,188.278 283.859 C 188.658 284.554,188.969 284.959,188.969 284.761 C 188.969 284.563,188.658 283.832,188.278 283.138 C 187.898 282.444,187.587 282.038,187.587 282.236 M189.029 285.482 C 189.029 285.681,189.340 286.411,189.720 287.106 C 190.101 287.800,190.412 288.206,190.412 288.007 C 190.412 287.809,190.101 287.078,189.720 286.384 C 189.340 285.690,189.029 285.284,189.029 285.482 M206.708 288.007 C 206.708 288.206,207.260 289.423,207.935 290.712 C 208.610 292.002,209.162 292.894,209.162 292.696 C 209.162 292.498,208.610 291.280,207.935 289.991 C 207.260 288.702,206.708 287.809,206.708 288.007 M190.472 288.729 C 190.472 288.927,190.783 289.657,191.163 290.352 C 191.543 291.046,191.854 291.452,191.854 291.253 C 191.854 291.055,191.543 290.325,191.163 289.630 C 190.783 288.936,190.472 288.530,190.472 288.729 M191.910 291.877 C 191.869 292.304,193.044 295.084,193.200 294.928 C 193.278 294.849,193.026 294.072,192.639 293.200 C 192.252 292.328,191.924 291.733,191.910 291.877 M209.584 294.139 C 209.584 294.337,209.816 294.905,210.099 295.401 C 210.383 295.897,210.615 296.141,210.615 295.942 C 210.615 295.744,210.383 295.176,210.099 294.680 C 209.816 294.184,209.584 293.940,209.584 294.139 M193.369 295.582 C 193.375 295.780,193.693 296.592,194.075 297.385 C 194.456 298.179,194.667 298.422,194.544 297.926 C 194.290 296.905,193.350 295.030,193.369 295.582 M211.026 297.385 C 211.026 297.583,211.258 298.151,211.542 298.647 C 211.825 299.143,212.057 299.387,212.057 299.188 C 212.057 298.990,211.825 298.422,211.542 297.926 C 211.258 297.430,211.026 297.187,211.026 297.385 M194.811 299.188 C 194.818 299.387,195.136 300.198,195.517 300.992 C 195.899 301.785,196.110 302.029,195.987 301.533 C 195.732 300.512,194.792 298.637,194.811 299.188 M212.162 300.090 C 212.828 301.945,214.736 306.213,214.850 306.100 C 215.001 305.948,212.525 300.035,212.185 299.738 C 212.066 299.634,212.055 299.793,212.162 300.090 M196.425 303.336 C 196.556 303.832,196.893 304.644,197.173 305.140 L 197.682 306.041 197.443 305.140 C 197.312 304.644,196.976 303.832,196.696 303.336 L 196.186 302.435 196.425 303.336 M197.686 306.402 C 197.686 306.601,197.997 307.331,198.377 308.025 C 198.757 308.720,199.068 309.125,199.068 308.927 C 199.068 308.729,198.757 307.998,198.377 307.304 C 197.997 306.610,197.686 306.204,197.686 306.402 M215.010 306.763 C 215.016 306.961,215.334 307.773,215.716 308.566 C 216.097 309.360,216.309 309.603,216.185 309.107 C 215.931 308.086,214.991 306.211,215.010 306.763 M199.485 310.370 C 199.485 310.568,199.716 311.136,200.000 311.632 C 200.284 312.128,200.515 312.372,200.515 312.173 C 200.515 311.975,200.284 311.407,200.000 310.911 C 199.716 310.415,199.485 310.171,199.485 310.370 M216.979 311.632 C 217.111 312.128,217.370 312.777,217.554 313.075 C 217.786 313.451,217.815 313.341,217.647 312.714 C 217.515 312.218,217.256 311.569,217.072 311.271 C 216.839 310.895,216.811 311.005,216.979 311.632 M200.902 313.562 C 200.902 313.939,201.967 315.960,202.166 315.960 C 202.369 315.960,201.592 314.101,201.194 313.634 C 201.033 313.445,200.902 313.413,200.902 313.562 M218.421 315.239 C 218.554 315.735,218.813 316.384,218.997 316.682 C 219.229 317.058,219.258 316.948,219.090 316.321 C 218.957 315.825,218.698 315.176,218.514 314.878 C 218.282 314.502,218.254 314.612,218.421 315.239 M202.344 316.459 C 202.344 316.846,203.418 318.846,203.625 318.846 C 203.725 318.846,203.537 318.318,203.210 317.674 C 202.540 316.357,202.344 316.083,202.344 316.459 M219.714 318.665 C 219.713 318.864,219.931 319.594,220.198 320.289 C 220.466 320.983,220.690 321.307,220.696 321.010 C 220.702 320.712,220.484 319.982,220.211 319.387 C 219.939 318.792,219.715 318.467,219.714 318.665 M203.787 319.345 C 203.787 319.732,204.860 321.731,205.068 321.731 C 205.167 321.731,204.980 321.204,204.652 320.559 C 203.983 319.243,203.787 318.968,203.787 319.345 M220.932 322.312 C 221.416 324.306,222.162 326.264,221.947 324.977 C 221.831 324.283,221.514 323.228,221.242 322.633 C 220.970 322.038,220.830 321.893,220.932 322.312 M205.253 322.272 C 205.253 322.471,205.491 322.948,205.782 323.333 C 206.074 323.718,206.312 323.871,206.312 323.673 C 206.312 323.474,206.074 322.997,205.782 322.612 C 205.491 322.227,205.253 322.074,205.253 322.272 M206.923 325.514 C 207.253 326.206,207.587 326.708,207.666 326.630 C 207.831 326.465,206.736 324.256,206.489 324.256 C 206.398 324.256,206.594 324.822,206.923 325.514 M222.603 328.043 C 222.598 328.811,223.528 331.900,223.580 331.289 C 223.597 331.091,223.385 330.117,223.109 329.125 C 222.833 328.133,222.605 327.647,222.603 328.043 M208.133 327.905 C 208.123 328.027,208.690 329.325,209.392 330.790 C 210.094 332.255,210.560 333.048,210.427 332.552 C 210.172 331.597,208.162 327.527,208.133 327.905 M224.025 333.634 C 224.011 333.931,224.225 334.986,224.501 335.978 C 224.777 336.970,225.015 337.538,225.028 337.241 C 225.042 336.943,224.828 335.888,224.552 334.896 C 224.276 333.904,224.039 333.336,224.025 333.634 M210.869 334.355 C 210.991 334.851,211.312 335.744,211.583 336.339 C 211.979 337.208,212.032 337.244,211.854 336.519 C 211.733 336.023,211.411 335.131,211.140 334.536 C 210.745 333.667,210.691 333.631,210.869 334.355 M212.599 339.585 C 212.740 340.180,213.011 340.826,213.200 341.020 C 213.390 341.214,213.354 340.808,213.121 340.118 C 212.575 338.503,212.268 338.189,212.599 339.585 " stroke="none" fill="#75e47d" fill-rule="evenodd"></path><path id="path5" d="M77.908 141.127 C 77.908 141.182,79.166 142.440,80.703 143.922 L 83.499 146.619 80.803 143.823 C 78.298 141.227,77.908 140.863,77.908 141.127 M247.791 163.210 C 248.464 163.904,249.096 164.472,249.195 164.472 C 249.294 164.472,248.824 163.904,248.151 163.210 C 247.479 162.516,246.847 161.948,246.748 161.948 C 246.648 161.948,247.118 162.516,247.791 163.210 M112.714 178.179 C 113.489 178.972,114.204 179.621,114.303 179.621 C 114.402 179.621,113.850 178.972,113.075 178.179 C 112.300 177.385,111.585 176.736,111.486 176.736 C 111.387 176.736,111.939 177.385,112.714 178.179 M138.323 180.343 C 139.098 181.136,139.813 181.785,139.912 181.785 C 140.011 181.785,139.458 181.136,138.683 180.343 C 137.909 179.549,137.194 178.900,137.094 178.900 C 136.995 178.900,137.548 179.549,138.323 180.343 " stroke="none" fill="#54e464" fill-rule="evenodd"></path><path id="path6" d="M170.738 31.364 C 170.565 31.523,169.775 31.856,168.981 32.104 C 168.188 32.353,167.313 32.737,167.037 32.960 C 166.762 33.182,165.788 33.557,164.873 33.794 L 163.210 34.225 164.833 34.030 C 165.726 33.923,166.833 33.596,167.293 33.304 C 169.081 32.169,171.402 31.708,171.911 32.388 C 172.325 32.941,172.352 32.923,172.174 32.216 C 171.955 31.348,171.227 30.915,170.738 31.364 M59.513 114.758 C 59.513 115.188,59.559 115.472,59.615 115.389 C 59.671 115.307,59.935 114.955,60.200 114.608 C 60.614 114.067,60.599 113.977,60.098 113.977 C 59.739 113.977,59.513 114.278,59.513 114.758 M58.764 116.231 C 58.749 116.280,58.680 116.619,58.611 116.984 C 58.542 117.348,58.230 117.929,57.917 118.275 C 57.605 118.620,57.349 119.033,57.349 119.193 C 57.349 119.729,58.828 117.611,58.970 116.871 C 59.078 116.310,58.905 115.771,58.764 116.231 M55.546 122.251 C 55.546 122.636,55.691 123.041,55.868 123.150 C 56.045 123.260,56.167 122.945,56.138 122.451 C 56.078 121.399,55.546 121.219,55.546 122.251 M344.740 215.934 C 345.113 216.083,345.116 216.228,344.756 216.663 C 344.509 216.961,344.342 217.675,344.386 218.251 C 344.430 218.826,344.301 219.297,344.100 219.297 C 343.629 219.297,343.621 220.267,344.090 220.557 C 344.294 220.683,344.355 220.538,344.231 220.217 C 344.113 219.909,344.196 219.657,344.416 219.657 C 344.640 219.657,344.815 219.037,344.815 218.245 C 344.815 217.468,345.006 216.768,345.240 216.690 C 345.761 216.517,345.299 215.679,344.704 215.718 C 344.409 215.738,344.420 215.805,344.740 215.934 M343.003 222.025 C 342.617 223.039,342.527 224.230,342.861 223.895 C 342.977 223.780,343.069 223.593,343.065 223.481 C 343.061 223.369,343.199 222.788,343.370 222.189 C 343.751 220.862,343.489 220.745,343.003 222.025 M223.063 339.966 C 222.382 340.511,222.384 340.516,223.128 340.158 C 223.549 339.955,224.239 339.856,224.661 339.937 C 225.083 340.018,225.428 339.932,225.428 339.745 C 225.428 339.202,223.829 339.352,223.063 339.966 M221.100 340.476 C 221.100 340.668,220.857 340.732,220.559 340.617 C 220.261 340.503,220.018 340.491,220.018 340.590 C 220.018 341.064,221.097 341.105,221.479 340.646 C 221.784 340.277,221.792 340.126,221.505 340.126 C 221.282 340.126,221.100 340.283,221.100 340.476 M213.706 341.181 C 213.309 341.337,214.445 341.393,216.230 341.307 C 218.014 341.221,219.543 341.082,219.626 340.999 C 219.901 340.724,214.443 340.892,213.706 341.181 " stroke="none" fill="#8c8c9c" fill-rule="evenodd"></path><path id="path7" d="M189.991 31.283 C 190.834 31.359,192.214 31.359,193.057 31.283 C 193.900 31.207,193.210 31.145,191.524 31.145 C 189.838 31.145,189.148 31.207,189.991 31.283 M197.205 31.283 C 198.048 31.359,199.427 31.359,200.271 31.283 C 201.114 31.207,200.424 31.145,198.738 31.145 C 197.051 31.145,196.362 31.207,197.205 31.283 M211.542 32.122 C 212.335 32.286,213.390 32.411,213.886 32.399 C 214.465 32.386,214.271 32.272,213.345 32.080 C 212.552 31.916,211.497 31.791,211.001 31.803 C 210.422 31.816,210.616 31.930,211.542 32.122 M176.105 32.350 C 176.452 32.440,177.020 32.440,177.367 32.350 C 177.714 32.259,177.430 32.185,176.736 32.185 C 176.041 32.185,175.757 32.259,176.105 32.350 M221.461 33.544 C 221.957 33.703,222.687 33.833,223.084 33.833 C 223.655 33.833,223.618 33.772,222.904 33.544 C 222.408 33.385,221.677 33.255,221.280 33.255 C 220.709 33.255,220.747 33.315,221.461 33.544 M228.494 34.986 C 228.891 35.157,229.459 35.296,229.757 35.296 C 230.098 35.296,230.031 35.182,229.576 34.986 C 229.179 34.816,228.611 34.676,228.314 34.676 C 227.973 34.676,228.039 34.791,228.494 34.986 M234.265 36.429 C 234.662 36.600,235.230 36.739,235.528 36.739 C 235.869 36.739,235.802 36.625,235.347 36.429 C 234.950 36.259,234.382 36.119,234.085 36.119 C 233.744 36.119,233.810 36.234,234.265 36.429 M258.251 45.266 C 258.747 45.550,259.315 45.781,259.513 45.781 C 259.711 45.781,259.468 45.550,258.972 45.266 C 258.476 44.982,257.908 44.751,257.710 44.751 C 257.511 44.751,257.755 44.982,258.251 45.266 M93.942 70.784 L 92.516 72.317 94.049 70.892 C 95.474 69.566,95.747 69.252,95.474 69.252 C 95.416 69.252,94.726 69.941,93.942 70.784 M300.631 75.023 C 302.807 77.205,304.668 78.990,304.767 78.990 C 304.866 78.990,303.167 77.205,300.992 75.023 C 298.817 72.840,296.955 71.055,296.856 71.055 C 296.757 71.055,298.456 72.840,300.631 75.023 M84.761 79.892 C 83.885 80.784,83.249 81.515,83.348 81.515 C 83.448 81.515,84.246 80.784,85.122 79.892 C 85.998 78.999,86.634 78.269,86.534 78.269 C 86.435 78.269,85.637 78.999,84.761 79.892 M81.673 83.408 L 80.613 84.581 81.785 83.521 C 82.878 82.534,83.123 82.236,82.845 82.236 C 82.783 82.236,82.255 82.764,81.673 83.408 M337.077 132.101 C 337.212 132.547,337.470 133.071,337.652 133.265 C 337.833 133.459,337.799 133.094,337.576 132.453 C 337.119 131.143,336.697 130.845,337.077 132.101 M47.817 149.169 C 47.684 149.698,47.645 150.200,47.730 150.285 C 47.815 150.370,47.993 150.007,48.126 149.478 C 48.258 148.950,48.297 148.448,48.212 148.363 C 48.127 148.278,47.949 148.641,47.817 149.169 M44.922 164.669 C 44.784 165.589,44.745 166.416,44.835 166.506 C 44.925 166.596,45.112 165.917,45.250 164.997 C 45.388 164.077,45.427 163.251,45.337 163.160 C 45.246 163.070,45.060 163.749,44.922 164.669 M346.000 171.506 C 346.003 172.498,346.073 172.861,346.156 172.312 C 346.239 171.764,346.237 170.953,346.151 170.509 C 346.065 170.065,345.998 170.514,346.000 171.506 M43.769 179.621 C 43.769 181.307,43.831 181.997,43.907 181.154 C 43.983 180.311,43.983 178.931,43.907 178.088 C 43.831 177.245,43.769 177.935,43.769 179.621 M346.765 186.655 C 346.765 189.829,346.820 191.079,346.887 189.433 C 346.954 187.787,346.954 185.190,346.886 183.662 C 346.819 182.134,346.764 183.481,346.765 186.655 M43.406 186.655 C 43.407 188.242,43.471 188.846,43.547 187.998 C 43.623 187.149,43.622 185.851,43.544 185.112 C 43.467 184.374,43.405 185.068,43.406 186.655 M43.769 193.327 C 43.769 195.014,43.831 195.703,43.907 194.860 C 43.983 194.017,43.983 192.638,43.907 191.794 C 43.831 190.951,43.769 191.641,43.769 193.327 M346.000 201.443 C 346.003 202.435,346.073 202.798,346.156 202.249 C 346.239 201.701,346.237 200.890,346.151 200.446 C 346.065 200.002,345.998 200.451,346.000 201.443 M344.679 211.556 C 344.556 211.878,344.473 212.575,344.496 213.104 C 344.527 213.825,344.608 213.705,344.819 212.624 C 345.117 211.091,345.052 210.586,344.679 211.556 M46.229 216.411 C 46.247 217.348,46.815 218.888,46.828 218.034 C 46.834 217.638,46.699 216.988,46.528 216.592 C 46.338 216.150,46.223 216.080,46.229 216.411 M47.661 223.264 C 47.661 223.562,47.801 224.130,47.971 224.527 C 48.167 224.981,48.281 225.048,48.281 224.707 C 48.281 224.409,48.142 223.841,47.971 223.445 C 47.776 222.990,47.661 222.923,47.661 223.264 M334.414 247.987 C 333.810 249.313,333.925 249.596,334.578 248.390 C 334.883 247.827,335.066 247.299,334.983 247.216 C 334.901 247.134,334.644 247.480,334.414 247.987 M306.025 292.606 L 304.599 294.139 306.132 292.713 C 307.557 291.387,307.830 291.073,307.557 291.073 C 307.498 291.073,306.809 291.763,306.025 292.606 M89.445 298.016 C 92.120 300.744,94.352 302.976,94.404 302.976 C 94.663 302.976,94.147 302.440,89.540 297.921 L 84.581 293.057 89.445 298.016 M299.526 299.459 L 298.467 300.631 299.639 299.572 C 300.284 298.989,300.812 298.462,300.812 298.400 C 300.812 298.121,300.514 298.366,299.526 299.459 M95.582 303.810 C 95.582 303.872,96.109 304.399,96.754 304.982 L 97.926 306.041 96.867 304.869 C 95.879 303.777,95.582 303.531,95.582 303.810 M292.313 305.951 L 291.253 307.124 292.426 306.064 C 293.070 305.482,293.598 304.954,293.598 304.892 C 293.598 304.613,293.300 304.859,292.313 305.951 M232.462 337.241 C 232.007 337.436,231.940 337.551,232.281 337.551 C 232.579 337.551,233.147 337.411,233.544 337.241 C 233.998 337.045,234.065 336.931,233.724 336.931 C 233.427 336.931,232.858 337.070,232.462 337.241 M162.849 338.683 C 163.246 338.854,163.814 338.993,164.112 338.993 C 164.453 338.993,164.386 338.879,163.931 338.683 C 163.535 338.513,162.967 338.374,162.669 338.374 C 162.328 338.374,162.395 338.488,162.849 338.683 M226.510 338.700 C 226.115 338.967,226.261 339.001,227.051 338.824 C 228.378 338.527,228.666 338.321,227.743 338.328 C 227.362 338.331,226.808 338.499,226.510 338.700 M170.243 340.126 C 170.739 340.285,171.470 340.415,171.867 340.415 C 172.438 340.415,172.400 340.355,171.686 340.126 C 171.190 339.967,170.460 339.837,170.063 339.837 C 169.492 339.837,169.529 339.898,170.243 340.126 M181.605 341.586 C 182.597 341.740,184.058 341.858,184.851 341.847 C 186.107 341.831,186.037 341.793,184.310 341.554 C 183.219 341.403,181.758 341.285,181.064 341.292 C 180.052 341.302,180.160 341.360,181.605 341.586 M208.386 341.463 C 208.832 341.549,209.563 341.549,210.009 341.463 C 210.455 341.377,210.090 341.307,209.197 341.307 C 208.305 341.307,207.940 341.377,208.386 341.463 M204.964 341.828 C 205.513 341.911,206.324 341.908,206.768 341.823 C 207.211 341.737,206.763 341.669,205.771 341.672 C 204.779 341.675,204.416 341.745,204.964 341.828 M192.516 342.197 C 193.954 342.266,196.307 342.266,197.746 342.197 C 199.184 342.129,198.007 342.073,195.131 342.073 C 192.254 342.073,191.078 342.129,192.516 342.197 " stroke="none" fill="#1cad2c" fill-rule="evenodd"></path><path id="path8" d="M163.751 39.788 C 163.751 39.850,164.279 40.378,164.923 40.960 L 166.096 42.020 165.036 40.848 C 164.049 39.755,163.751 39.510,163.751 39.788 M242.200 134.896 C 242.975 135.690,243.690 136.339,243.789 136.339 C 243.889 136.339,243.336 135.690,242.561 134.896 C 241.786 134.103,241.071 133.454,240.972 133.454 C 240.873 133.454,241.425 134.103,242.200 134.896 M89.630 136.700 C 90.808 137.890,91.853 138.864,91.952 138.864 C 92.051 138.864,91.169 137.890,89.991 136.700 C 88.813 135.509,87.768 134.536,87.669 134.536 C 87.570 134.536,88.452 135.509,89.630 136.700 M72.678 136.700 C 73.453 137.493,74.168 138.142,74.267 138.142 C 74.366 138.142,73.814 137.493,73.039 136.700 C 72.264 135.906,71.549 135.257,71.450 135.257 C 71.350 135.257,71.903 135.906,72.678 136.700 M225.428 139.405 C 226.101 140.099,226.733 140.667,226.832 140.667 C 226.931 140.667,226.462 140.099,225.789 139.405 C 225.116 138.711,224.484 138.142,224.385 138.142 C 224.286 138.142,224.755 138.711,225.428 139.405 M249.218 142.200 C 250.103 143.142,250.874 143.913,250.932 143.913 C 251.203 143.913,250.916 143.590,249.324 142.095 L 247.610 140.487 249.218 142.200 M227.232 141.502 C 227.232 141.564,227.759 142.091,228.404 142.674 L 229.576 143.733 228.517 142.561 C 227.529 141.468,227.232 141.223,227.232 141.502 M84.761 148.422 C 85.434 149.116,86.066 149.684,86.165 149.684 C 86.264 149.684,85.795 149.116,85.122 148.422 C 84.449 147.728,83.817 147.160,83.718 147.160 C 83.619 147.160,84.088 147.728,84.761 148.422 M103.156 147.994 C 103.156 148.056,103.683 148.583,104.328 149.166 L 105.500 150.225 104.441 149.053 C 103.454 147.961,103.156 147.715,103.156 147.994 M89.630 153.652 C 90.405 154.445,91.120 155.095,91.219 155.095 C 91.319 155.095,90.766 154.445,89.991 153.652 C 89.216 152.858,88.501 152.209,88.402 152.209 C 88.303 152.209,88.855 152.858,89.630 153.652 M111.812 155.929 C 111.812 155.991,112.340 156.518,112.985 157.101 L 114.157 158.161 113.098 156.988 C 112.110 155.896,111.812 155.650,111.812 155.929 M240.216 155.915 C 240.216 155.970,241.474 157.228,243.012 158.711 L 245.807 161.407 243.111 158.611 C 240.607 156.015,240.216 155.651,240.216 155.915 M265.104 158.161 C 266.382 159.450,267.508 160.505,267.608 160.505 C 267.707 160.505,266.742 159.450,265.464 158.161 C 264.186 156.871,263.060 155.816,262.960 155.816 C 262.861 155.816,263.826 156.871,265.104 158.161 M95.567 159.874 C 96.451 160.816,97.222 161.587,97.280 161.587 C 97.551 161.587,97.264 161.263,95.672 159.769 L 93.959 158.161 95.567 159.874 M271.776 164.472 C 272.551 165.266,273.266 165.915,273.366 165.915 C 273.465 165.915,272.912 165.266,272.137 164.472 C 271.362 163.679,270.647 163.030,270.548 163.030 C 270.449 163.030,271.002 163.679,271.776 164.472 M107.484 172.949 C 108.762 174.238,109.889 175.293,109.988 175.293 C 110.087 175.293,109.123 174.238,107.845 172.949 C 106.567 171.659,105.440 170.604,105.341 170.604 C 105.242 170.604,106.206 171.659,107.484 172.949 M143.733 185.753 C 144.508 186.546,145.223 187.196,145.322 187.196 C 145.421 187.196,144.869 186.546,144.094 185.753 C 143.319 184.959,142.604 184.310,142.505 184.310 C 142.405 184.310,142.958 184.959,143.733 185.753 M121.731 188.278 C 122.708 189.270,123.589 190.081,123.688 190.081 C 123.787 190.081,123.069 189.270,122.092 188.278 C 121.115 187.286,120.235 186.474,120.135 186.474 C 120.036 186.474,120.754 187.286,121.731 188.278 M147.881 190.261 C 148.554 190.956,149.186 191.524,149.285 191.524 C 149.384 191.524,148.915 190.956,148.242 190.261 C 147.569 189.567,146.937 188.999,146.838 188.999 C 146.739 188.999,147.208 189.567,147.881 190.261 M125.503 191.975 C 126.998 193.567,127.322 193.854,127.322 193.583 C 127.322 193.525,126.551 192.754,125.609 191.870 L 123.895 190.261 125.503 191.975 " stroke="none" fill="#4bdd56" fill-rule="evenodd"></path></g></svg>