<svg id="svg" version="1.1" xmlns="http://www.w3.org/2000/svg" xmlns:xlink="http://www.w3.org/1999/xlink" width="400" height="432" viewBox="0, 0, 400,432"><g id="svgg"><path id="path0" d="M234.996 15.641 C 234.118 16.105,233.038 16.817,232.595 17.223 C 232.152 17.629,231.129 18.238,230.322 18.575 C 229.515 18.912,228.754 19.351,228.631 19.550 C 228.508 19.749,227.911 20.033,227.304 20.183 C 226.697 20.332,225.300 20.886,224.200 21.413 C 220.717 23.083,216.488 24.800,215.857 24.800 C 215.521 24.800,215.144 24.966,215.019 25.169 C 214.893 25.373,213.848 25.850,212.695 26.231 C 211.543 26.611,210.240 27.145,209.800 27.417 C 209.360 27.689,208.280 28.124,207.400 28.386 C 206.520 28.647,205.260 29.115,204.600 29.425 C 202.449 30.438,196.032 32.800,195.432 32.800 C 195.110 32.800,194.737 32.978,194.603 33.195 C 194.469 33.412,193.333 33.878,192.080 34.231 C 190.826 34.584,189.080 35.201,188.200 35.602 C 187.320 36.002,186.012 36.451,185.293 36.598 C 184.119 36.839,182.131 39.200,183.102 39.200 C 183.279 39.200,184.139 40.205,185.012 41.434 C 185.885 42.662,187.098 44.327,187.706 45.134 C 188.315 45.940,189.079 46.960,189.406 47.400 C 190.389 48.725,200.940 61.369,201.422 61.800 C 201.669 62.020,203.475 64.079,205.435 66.375 C 207.396 68.671,209.360 70.924,209.800 71.382 C 210.240 71.839,211.500 73.257,212.600 74.533 C 213.700 75.808,215.410 77.721,216.400 78.782 C 220.785 83.486,226.368 89.500,227.371 90.600 C 228.438 91.771,230.536 93.971,239.978 103.823 C 249.123 113.365,261.822 126.794,263.800 129.015 C 264.674 129.996,270.669 136.611,271.733 137.768 C 272.356 138.446,274.392 140.827,276.256 143.059 C 280.607 148.269,280.768 148.292,286.600 144.501 C 287.480 143.929,288.875 143.043,289.700 142.531 C 290.525 142.019,291.885 141.150,292.722 140.600 C 293.558 140.050,294.436 139.600,294.673 139.600 C 294.909 139.600,295.325 139.331,295.598 139.002 C 295.872 138.673,297.379 137.676,298.947 136.788 C 300.516 135.899,303.600 134.105,305.800 132.802 C 308.000 131.499,310.430 130.091,311.200 129.674 C 311.970 129.256,314.490 127.833,316.800 126.511 C 319.110 125.190,321.450 123.970,322.000 123.802 C 322.550 123.633,323.450 123.198,324.000 122.834 C 324.550 122.471,325.630 121.856,326.400 121.468 C 328.959 120.179,331.380 118.744,333.209 117.431 C 334.203 116.717,335.553 116.005,336.209 115.849 C 339.925 114.964,345.095 110.055,343.467 108.956 C 342.727 108.457,337.992 105.160,337.064 104.499 C 336.369 104.003,335.170 103.148,334.400 102.600 C 333.630 102.052,332.370 101.152,331.600 100.600 C 330.830 100.048,329.570 99.148,328.800 98.600 C 328.030 98.052,326.770 97.152,326.000 96.600 C 324.154 95.278,322.038 93.775,320.800 92.908 C 319.813 92.216,314.952 88.616,313.400 87.426 C 312.960 87.088,311.880 86.276,311.000 85.621 C 308.594 83.830,304.713 80.855,301.694 78.486 C 300.212 77.324,298.480 75.974,297.844 75.486 C 297.208 74.999,296.218 74.209,295.644 73.731 C 295.070 73.252,292.260 70.931,289.400 68.572 C 286.540 66.213,283.840 63.955,283.400 63.553 C 282.960 63.152,282.036 62.323,281.347 61.712 C 265.990 48.083,251.860 33.505,241.888 21.001 C 236.341 14.046,237.019 14.572,234.996 15.641 M173.150 44.771 C 171.088 46.501,168.320 49.041,167.000 50.416 C 165.680 51.791,163.899 53.359,163.042 53.900 C 162.185 54.441,160.560 55.810,159.430 56.942 C 155.243 61.140,138.184 75.452,118.597 91.200 C 85.115 118.120,75.554 126.189,62.707 138.366 C 58.661 142.200,59.015 143.460,64.306 144.056 C 70.513 144.755,129.748 145.961,156.400 145.931 C 176.732 145.908,181.085 145.800,209.600 144.619 C 232.005 143.691,244.479 143.966,263.769 145.814 C 274.045 146.798,274.419 147.860,259.016 132.331 C 247.197 120.415,227.978 100.679,218.781 91.014 C 213.161 85.106,205.813 77.200,203.164 74.208 C 202.194 73.112,201.141 71.942,200.824 71.608 C 199.476 70.185,188.496 56.800,187.400 55.243 C 186.740 54.306,185.820 53.058,185.356 52.469 C 184.892 51.881,183.505 49.870,182.273 48.000 C 177.444 40.670,177.863 40.818,173.150 44.771 M106.200 185.657 C 101.518 187.378,100.217 193.562,103.331 199.292 C 104.080 200.672,105.171 202.653,105.755 203.696 C 106.338 204.738,107.276 206.438,107.837 207.472 C 108.399 208.507,109.449 210.264,110.169 211.377 C 112.831 215.487,113.425 217.705,112.681 220.746 C 112.324 222.206,111.912 224.030,111.767 224.800 C 111.621 225.570,111.188 226.830,110.803 227.600 C 107.747 233.718,109.259 244.392,113.609 247.406 C 116.888 249.678,124.400 247.183,124.400 243.822 C 124.400 243.539,124.759 242.851,125.199 242.293 C 125.708 241.644,126.154 240.142,126.431 238.139 C 126.841 235.167,128.711 230.800,129.574 230.800 C 129.747 230.800,130.545 230.355,131.347 229.810 C 132.149 229.266,133.929 228.530,135.303 228.175 C 136.676 227.819,138.002 227.361,138.250 227.157 C 138.497 226.953,141.424 226.524,144.754 226.204 C 148.085 225.885,151.156 225.438,151.579 225.211 C 152.003 224.984,155.106 224.612,158.475 224.384 C 161.844 224.156,165.500 223.787,166.600 223.564 C 171.259 222.622,173.047 222.462,181.664 222.217 C 192.763 221.902,193.401 222.052,193.791 225.067 C 193.928 226.130,194.166 227.204,194.320 227.454 C 200.887 238.096,213.124 247.052,218.255 244.970 C 219.748 244.364,222.397 241.831,222.402 241.004 C 222.404 240.782,222.691 240.060,223.040 239.400 C 223.738 238.083,223.868 235.413,223.271 234.671 C 223.063 234.412,222.758 233.570,222.595 232.800 C 222.322 231.518,221.185 228.916,219.798 226.400 C 219.495 225.850,218.854 224.545,218.374 223.500 C 217.894 222.455,217.372 221.600,217.214 221.600 C 217.056 221.600,216.703 220.835,216.429 219.900 C 216.155 218.965,215.644 217.751,215.293 217.203 C 214.097 215.335,214.472 210.657,216.057 207.669 C 218.557 202.959,218.757 202.601,219.131 202.168 C 222.903 197.806,223.676 189.955,220.601 187.254 C 217.252 184.314,206.656 185.286,202.000 188.961 C 201.670 189.221,200.926 189.671,200.347 189.960 C 198.178 191.041,193.902 195.829,193.640 197.468 C 193.453 198.641,193.115 199.143,192.198 199.612 C 191.539 199.948,190.468 200.578,189.817 201.012 C 188.472 201.909,131.834 202.099,128.827 201.217 C 128.072 200.995,126.812 200.904,126.027 201.015 C 123.917 201.313,122.741 200.151,122.368 197.402 C 121.502 191.025,111.454 183.725,106.200 185.657 M110.996 186.448 C 114.854 187.519,120.859 193.966,121.566 197.795 C 122.471 202.700,120.174 202.428,161.400 202.507 C 188.583 202.559,188.941 202.544,191.200 201.261 C 191.530 201.074,192.340 200.636,193.000 200.287 C 193.955 199.784,194.247 199.314,194.431 197.992 C 194.691 196.130,199.437 191.094,201.666 190.317 C 202.290 190.100,202.800 189.774,202.800 189.593 C 202.800 189.412,203.745 188.959,204.900 188.587 C 206.055 188.214,207.360 187.692,207.800 187.426 C 209.436 186.437,214.181 185.898,216.678 186.416 C 222.449 187.614,223.402 192.128,219.461 199.608 C 212.165 213.459,212.179 213.268,217.703 224.430 C 223.447 236.034,223.832 238.776,220.267 242.666 C 216.454 246.827,207.619 242.481,198.987 232.198 C 195.542 228.093,194.939 227.091,194.658 225.006 C 194.165 221.344,194.320 221.389,182.552 221.470 C 175.123 221.521,171.496 221.711,169.258 222.164 C 167.566 222.507,162.958 223.070,159.018 223.415 C 155.078 223.760,151.729 224.121,151.575 224.216 C 151.421 224.311,148.529 224.742,145.148 225.175 C 141.766 225.607,137.937 226.330,136.637 226.781 C 135.338 227.231,133.988 227.602,133.637 227.604 C 130.330 227.624,126.352 232.558,125.669 237.490 C 124.072 249.013,112.354 251.355,110.357 240.550 C 109.833 237.715,110.552 230.668,111.613 228.251 C 112.011 227.343,112.460 225.880,112.610 225.000 C 112.760 224.120,113.134 222.629,113.442 221.686 C 114.573 218.213,113.788 215.182,110.414 210.000 C 109.770 209.010,108.872 207.480,108.420 206.600 C 107.967 205.720,107.067 204.100,106.420 203.000 C 105.773 201.900,104.945 200.370,104.582 199.600 C 104.218 198.830,103.631 197.875,103.278 197.478 C 102.797 196.936,102.632 195.884,102.618 193.265 L 102.600 189.774 104.067 188.307 C 106.140 186.233,108.217 185.676,110.996 186.448 " stroke="none" fill="#813ad8" fill-rule="evenodd"></path><path id="path1" d="M233.484 5.450 C 233.328 5.606,233.200 6.063,233.200 6.467 C 233.200 7.035,232.892 7.200,231.829 7.200 C 230.527 7.200,229.200 8.022,229.200 8.829 C 229.200 9.033,228.742 9.200,228.182 9.200 C 227.622 9.200,226.727 9.637,226.193 10.171 C 225.659 10.705,224.812 11.200,224.311 11.271 C 223.722 11.354,223.355 11.718,223.272 12.300 C 223.161 13.082,222.907 13.200,221.330 13.200 C 219.881 13.200,219.360 13.397,218.745 14.180 C 218.134 14.956,217.541 15.184,215.887 15.280 C 214.169 15.379,213.730 15.559,213.405 16.300 C 213.075 17.052,212.697 17.200,211.105 17.200 C 209.340 17.200,209.200 17.273,209.200 18.200 C 209.200 19.154,209.091 19.200,206.829 19.200 C 204.551 19.200,203.200 19.806,203.200 20.829 C 203.200 21.033,202.371 21.200,201.358 21.200 C 199.879 21.200,199.363 21.393,198.745 22.180 C 198.134 22.956,197.541 23.184,195.887 23.280 C 194.169 23.379,193.730 23.559,193.405 24.300 C 193.074 25.054,192.698 25.200,191.087 25.200 C 189.580 25.200,188.952 25.412,188.186 26.178 C 187.478 26.886,186.682 27.190,185.304 27.278 C 183.679 27.382,183.381 27.532,183.272 28.300 C 183.159 29.094,182.913 29.200,181.172 29.200 C 179.335 29.200,179.200 29.269,179.200 30.200 C 179.200 31.000,179.000 31.200,178.200 31.200 C 177.400 31.200,177.200 31.400,177.200 32.200 C 177.200 32.950,176.989 33.200,176.358 33.200 C 175.894 33.200,175.170 33.638,174.749 34.174 C 174.327 34.710,173.491 35.205,172.891 35.274 C 172.227 35.351,171.648 35.746,171.412 36.284 C 171.199 36.770,170.659 37.220,170.212 37.284 C 169.721 37.354,169.349 37.756,169.272 38.300 C 169.180 38.951,168.876 39.200,168.172 39.200 C 167.402 39.200,167.200 39.408,167.200 40.200 C 167.200 41.000,167.000 41.200,166.200 41.200 C 165.400 41.200,165.200 41.400,165.200 42.200 C 165.200 43.000,165.000 43.200,164.200 43.200 C 163.400 43.200,163.200 43.400,163.200 44.200 C 163.200 45.000,163.000 45.200,162.200 45.200 C 161.400 45.200,161.200 45.400,161.200 46.200 C 161.200 47.048,161.015 47.200,159.981 47.200 C 159.194 47.200,158.433 47.555,157.835 48.200 C 157.325 48.750,156.524 49.200,156.054 49.200 C 155.410 49.200,155.200 49.446,155.200 50.200 C 155.200 51.005,155.001 51.200,154.182 51.200 C 153.622 51.200,152.727 51.637,152.193 52.171 C 151.659 52.705,150.812 53.200,150.311 53.271 C 149.722 53.354,149.355 53.718,149.272 54.300 C 149.180 54.951,148.876 55.200,148.172 55.200 C 147.402 55.200,147.200 55.408,147.200 56.200 C 147.200 56.950,146.989 57.200,146.358 57.200 C 145.894 57.200,145.180 57.626,144.770 58.148 C 144.360 58.669,143.493 59.201,142.844 59.331 C 142.140 59.472,141.560 59.896,141.405 60.384 C 141.238 60.911,140.801 61.200,140.173 61.200 C 139.402 61.200,139.200 61.407,139.200 62.200 C 139.200 63.000,139.000 63.200,138.200 63.200 C 137.400 63.200,137.200 63.400,137.200 64.200 C 137.200 65.005,137.001 65.200,136.182 65.200 C 135.622 65.200,134.728 65.636,134.196 66.168 C 133.663 66.700,132.906 67.196,132.514 67.270 C 132.121 67.344,131.622 67.809,131.405 68.302 C 131.163 68.852,130.659 69.200,130.105 69.200 C 129.406 69.200,129.200 69.428,129.200 70.200 C 129.200 71.000,129.000 71.200,128.200 71.200 C 127.400 71.200,127.200 71.400,127.200 72.200 C 127.200 73.005,127.001 73.200,126.182 73.200 C 125.622 73.200,124.728 73.636,124.196 74.168 C 123.663 74.700,122.906 75.196,122.514 75.270 C 122.121 75.344,121.622 75.809,121.405 76.302 C 121.163 76.852,120.659 77.200,120.105 77.200 C 119.406 77.200,119.200 77.428,119.200 78.200 C 119.200 79.000,119.000 79.200,118.200 79.200 C 117.400 79.200,117.200 79.400,117.200 80.200 C 117.200 81.005,117.001 81.200,116.182 81.200 C 115.622 81.200,114.728 81.636,114.196 82.168 C 113.663 82.700,112.906 83.196,112.514 83.270 C 112.121 83.344,111.622 83.809,111.405 84.302 C 111.163 84.852,110.659 85.200,110.105 85.200 C 109.406 85.200,109.200 85.428,109.200 86.200 C 109.200 87.000,109.000 87.200,108.200 87.200 C 107.400 87.200,107.200 87.400,107.200 88.200 C 107.200 88.950,106.989 89.200,106.358 89.200 C 105.894 89.200,105.170 89.638,104.749 90.174 C 104.327 90.710,103.491 91.205,102.891 91.274 C 102.220 91.352,101.648 91.747,101.405 92.300 C 101.163 92.852,100.660 93.200,100.105 93.200 C 99.406 93.200,99.200 93.428,99.200 94.200 C 99.200 95.000,99.000 95.200,98.200 95.200 C 97.400 95.200,97.200 95.400,97.200 96.200 C 97.200 96.950,96.989 97.200,96.358 97.200 C 95.894 97.200,95.180 97.626,94.770 98.148 C 94.360 98.669,93.493 99.201,92.844 99.331 C 92.156 99.469,91.560 99.897,91.413 100.358 C 91.275 100.793,90.766 101.206,90.281 101.275 C 89.721 101.354,89.353 101.728,89.272 102.300 C 89.180 102.951,88.876 103.200,88.172 103.200 C 87.402 103.200,87.200 103.408,87.200 104.200 C 87.200 104.972,86.994 105.200,86.296 105.200 C 85.799 105.200,85.169 105.558,84.896 105.995 C 84.623 106.432,83.770 107.053,83.000 107.374 C 82.230 107.696,81.600 108.153,81.600 108.389 C 81.600 108.626,81.133 108.998,80.561 109.215 C 79.990 109.432,79.429 109.967,79.315 110.405 C 79.180 110.918,78.768 111.200,78.153 111.200 C 77.403 111.200,77.200 111.413,77.200 112.200 C 77.200 113.000,77.000 113.200,76.200 113.200 C 75.400 113.200,75.200 113.400,75.200 114.200 C 75.200 115.000,75.000 115.200,74.200 115.200 C 73.400 115.200,73.200 115.400,73.200 116.200 C 73.200 116.920,72.985 117.200,72.431 117.200 C 72.008 117.200,71.113 117.695,70.444 118.300 C 69.774 118.905,68.221 120.300,66.994 121.400 C 63.966 124.113,59.619 128.457,58.400 129.987 C 57.850 130.677,56.905 131.786,56.300 132.452 C 55.695 133.117,55.200 134.008,55.200 134.431 C 55.200 134.985,54.920 135.200,54.200 135.200 C 53.400 135.200,53.200 135.400,53.200 136.200 C 53.200 136.750,53.033 137.200,52.829 137.200 C 51.384 137.200,51.200 138.315,51.200 147.045 C 51.200 155.323,51.168 155.676,50.300 156.849 L 49.400 158.067 49.281 204.922 C 49.178 245.597,49.085 251.864,48.571 252.432 C 48.049 253.009,48.051 253.144,48.590 253.592 C 49.501 254.348,49.440 259.471,48.508 260.502 C 47.445 261.677,47.425 312.302,48.488 313.476 C 49.113 314.167,49.186 315.864,49.288 332.085 C 49.400 349.884,49.403 349.937,50.300 351.151 L 51.200 352.368 51.200 375.602 L 51.200 398.836 52.200 399.836 C 52.750 400.386,53.200 401.062,53.200 401.338 C 53.200 402.248,54.137 402.800,55.680 402.800 C 57.035 402.800,57.200 402.909,57.200 403.800 C 57.200 404.784,57.252 404.800,60.416 404.800 C 63.033 404.800,63.839 404.953,64.743 405.621 C 66.799 407.141,92.366 406.887,93.655 405.334 C 94.011 404.905,97.183 404.801,109.749 404.804 C 129.490 404.809,148.746 404.110,149.619 403.357 C 150.125 402.920,158.561 402.803,196.086 402.711 L 241.933 402.600 243.150 401.700 C 244.351 400.812,244.535 400.800,256.784 400.800 L 269.200 400.800 269.200 402.171 C 269.200 405.547,274.090 405.171,275.035 401.722 C 275.218 401.056,275.628 400.814,276.738 400.722 C 277.793 400.634,278.308 400.354,278.588 399.716 C 278.801 399.230,279.341 398.780,279.788 398.716 C 280.273 398.647,280.650 398.245,280.725 397.719 C 280.794 397.234,281.199 396.727,281.625 396.592 C 282.051 396.457,282.400 396.184,282.400 395.987 C 282.400 395.789,282.895 395.111,283.500 394.479 C 285.804 392.072,287.047 390.575,287.310 389.891 C 287.459 389.501,287.901 389.072,288.291 388.937 C 289.034 388.680,289.710 388.099,293.000 384.896 C 294.100 383.825,295.332 382.824,295.738 382.672 C 296.144 382.520,296.566 382.054,296.675 381.635 C 296.784 381.216,297.231 380.781,297.667 380.667 C 298.103 380.553,298.554 380.096,298.670 379.652 C 298.787 379.208,299.268 378.790,299.741 378.722 C 300.270 378.647,300.648 378.264,300.725 377.725 C 300.802 377.179,301.179 376.802,301.725 376.725 C 302.270 376.647,302.647 376.270,302.725 375.725 C 302.802 375.179,303.179 374.802,303.725 374.725 C 304.270 374.647,304.647 374.270,304.725 373.725 C 304.802 373.179,305.179 372.802,305.725 372.725 C 306.279 372.646,306.647 372.270,306.728 371.700 C 306.820 371.049,307.124 370.800,307.828 370.800 C 308.598 370.800,308.800 370.592,308.800 369.800 C 308.800 369.000,309.000 368.800,309.800 368.800 C 310.600 368.800,310.800 368.600,310.800 367.800 C 310.800 367.000,311.000 366.800,311.800 366.800 C 312.600 366.800,312.800 366.600,312.800 365.800 C 312.800 365.000,313.000 364.800,313.800 364.800 C 314.600 364.800,314.800 364.600,314.800 363.800 C 314.800 363.000,315.000 362.800,315.800 362.800 C 316.600 362.800,316.800 362.600,316.800 361.800 C 316.800 361.000,317.000 360.800,317.800 360.800 C 318.600 360.800,318.800 360.600,318.800 359.800 C 318.800 359.000,319.000 358.800,319.800 358.800 C 320.600 358.800,320.800 358.600,320.800 357.800 C 320.800 357.000,321.000 356.800,321.800 356.800 C 322.600 356.800,322.800 356.600,322.800 355.800 C 322.800 355.088,323.017 354.800,323.552 354.800 C 323.965 354.800,325.810 353.354,327.652 351.587 C 333.521 345.955,334.753 344.869,335.565 344.611 C 336.002 344.472,336.464 344.028,336.593 343.623 C 336.721 343.218,337.194 342.790,337.643 342.673 C 338.092 342.555,338.554 342.096,338.670 341.652 C 338.787 341.208,339.268 340.790,339.741 340.722 C 340.270 340.647,340.648 340.264,340.725 339.725 C 340.802 339.179,341.179 338.802,341.725 338.725 C 342.279 338.646,342.647 338.270,342.728 337.700 C 342.820 337.049,343.124 336.800,343.828 336.800 C 344.598 336.800,344.800 336.592,344.800 335.800 C 344.800 335.000,345.000 334.800,345.800 334.800 C 346.600 334.800,346.800 334.600,346.800 333.800 C 346.800 333.000,347.000 332.800,347.800 332.800 C 348.600 332.800,348.800 332.600,348.800 331.800 C 348.800 330.867,348.933 330.800,350.800 330.800 L 352.800 330.800 352.800 328.827 C 352.800 327.222,352.946 326.808,353.580 326.606 C 354.008 326.470,354.470 326.008,354.606 325.580 C 354.743 325.151,355.009 324.800,355.198 324.800 C 355.988 324.800,356.800 323.449,356.800 322.136 C 356.800 321.256,357.084 320.479,357.556 320.064 C 358.931 318.857,358.945 316.976,357.589 315.589 C 356.935 314.920,356.400 314.211,356.400 314.013 C 356.400 313.816,356.049 313.543,355.621 313.407 C 355.021 313.216,354.814 312.728,354.721 311.280 C 354.618 309.679,354.466 309.381,353.700 309.272 L 352.800 309.144 352.800 288.621 C 352.800 270.715,352.878 268.033,353.410 267.592 C 353.957 267.138,353.957 267.015,353.410 266.411 C 352.562 265.474,352.555 260.302,353.400 259.600 C 353.917 259.171,354.000 256.603,354.000 241.000 C 354.000 225.397,353.917 222.829,353.400 222.400 C 353.070 222.126,352.800 221.496,352.800 221.000 C 352.800 220.504,353.070 219.874,353.400 219.600 C 353.730 219.326,354.000 218.606,354.000 218.000 C 354.000 217.394,353.730 216.674,353.400 216.400 C 352.624 215.756,352.630 214.239,353.410 213.592 C 353.957 213.138,353.957 213.015,353.410 212.411 C 352.632 211.552,352.628 210.241,353.400 209.600 C 353.839 209.236,354.000 208.269,354.000 206.000 C 354.000 203.731,353.839 202.764,353.400 202.400 C 352.624 201.756,352.630 200.239,353.410 199.592 C 353.957 199.138,353.957 199.015,353.410 198.411 C 353.075 198.040,352.800 197.368,352.800 196.917 C 352.800 196.467,353.075 195.870,353.410 195.592 C 353.957 195.138,353.957 195.015,353.410 194.411 C 352.542 193.452,352.534 186.319,353.400 185.600 C 354.251 184.894,354.251 179.106,353.400 178.400 C 352.583 177.722,352.591 174.272,353.410 173.592 C 353.957 173.138,353.957 173.015,353.410 172.411 C 352.632 171.552,352.628 170.241,353.400 169.600 C 353.914 169.173,354.000 166.936,354.000 154.000 C 354.000 141.064,353.914 138.827,353.400 138.400 C 352.624 137.756,352.630 136.239,353.410 135.592 C 353.957 135.138,353.957 135.015,353.410 134.411 C 352.905 133.853,352.800 132.318,352.800 125.469 L 352.800 117.200 351.800 117.200 C 350.899 117.200,350.800 117.041,350.800 115.586 C 350.800 114.096,350.861 114.005,351.600 114.400 C 352.068 114.650,352.400 115.238,352.400 115.814 C 352.400 116.512,352.619 116.800,353.151 116.800 C 353.564 116.800,354.128 117.072,354.404 117.405 C 354.786 117.865,355.037 117.901,355.453 117.556 C 356.182 116.951,356.150 115.022,355.400 114.400 C 354.563 113.706,354.652 112.685,355.600 112.093 C 356.622 111.455,356.622 110.545,355.600 109.907 C 355.069 109.575,354.800 108.974,354.800 108.118 C 354.800 107.266,354.426 106.423,353.700 105.636 C 353.095 104.980,352.368 104.164,352.084 103.822 C 351.801 103.480,351.229 103.200,350.813 103.200 C 350.398 103.200,349.704 102.750,349.271 102.200 C 348.839 101.650,348.106 101.200,347.642 101.200 C 347.011 101.200,346.800 100.950,346.800 100.200 C 346.800 99.400,346.600 99.200,345.800 99.200 C 345.000 99.200,344.800 99.000,344.800 98.200 C 344.800 97.407,344.598 97.200,343.827 97.200 C 343.199 97.200,342.762 96.911,342.595 96.384 C 342.440 95.896,341.860 95.472,341.156 95.331 C 340.507 95.201,339.640 94.669,339.230 94.148 C 338.820 93.626,338.106 93.200,337.642 93.200 C 337.011 93.200,336.800 92.950,336.800 92.200 C 336.800 91.428,336.594 91.200,335.895 91.200 C 335.340 91.200,334.837 90.852,334.595 90.300 C 334.352 89.747,333.780 89.352,333.109 89.274 C 332.509 89.205,331.673 88.710,331.251 88.174 C 330.830 87.638,330.106 87.200,329.642 87.200 C 329.011 87.200,328.800 86.950,328.800 86.200 C 328.800 85.400,328.600 85.200,327.800 85.200 C 327.250 85.200,326.800 85.033,326.800 84.829 C 326.800 84.022,325.473 83.200,324.171 83.200 C 322.975 83.200,322.800 83.072,322.800 82.200 C 322.800 81.408,322.598 81.200,321.828 81.200 C 321.126 81.200,320.820 80.951,320.728 80.304 C 320.654 79.787,320.262 79.344,319.801 79.256 C 319.362 79.172,318.605 78.675,318.120 78.152 C 317.563 77.551,316.789 77.200,316.019 77.200 C 314.985 77.200,314.800 77.048,314.800 76.200 C 314.800 75.400,314.600 75.200,313.800 75.200 C 313.000 75.200,312.800 75.000,312.800 74.200 C 312.800 73.428,312.594 73.200,311.895 73.200 C 311.340 73.200,310.837 72.852,310.595 72.300 C 310.352 71.747,309.780 71.352,309.109 71.274 C 308.509 71.205,307.673 70.710,307.251 70.174 C 306.830 69.638,306.106 69.200,305.642 69.200 C 305.011 69.200,304.800 68.950,304.800 68.200 C 304.800 67.408,304.598 67.200,303.828 67.200 C 303.126 67.200,302.820 66.951,302.728 66.304 C 302.654 65.787,302.262 65.344,301.801 65.256 C 301.362 65.172,300.605 64.675,300.120 64.152 C 299.635 63.628,298.964 63.200,298.628 63.200 C 298.293 63.200,297.724 62.750,297.363 62.200 C 297.003 61.650,296.388 61.200,295.997 61.200 C 295.578 61.200,295.187 60.801,295.043 60.228 C 294.890 59.621,294.460 59.207,293.899 59.128 C 293.322 59.046,292.954 58.678,292.872 58.100 C 292.781 57.457,292.475 57.200,291.800 57.200 C 291.125 57.200,290.819 56.943,290.728 56.300 C 290.651 55.756,290.279 55.354,289.788 55.284 C 289.341 55.220,288.801 54.771,288.588 54.286 C 288.375 53.801,287.842 53.337,287.404 53.255 C 286.967 53.172,286.363 52.755,286.064 52.327 C 285.764 51.899,285.070 51.379,284.521 51.170 C 283.972 50.961,283.429 50.433,283.315 49.995 C 283.183 49.491,282.768 49.200,282.181 49.200 C 281.526 49.200,281.218 48.937,281.128 48.300 C 281.047 47.730,280.679 47.354,280.125 47.275 C 279.579 47.198,279.202 46.821,279.125 46.275 C 279.048 45.735,278.670 45.353,278.138 45.277 C 277.613 45.202,277.179 44.772,277.030 44.177 C 276.879 43.576,276.496 43.200,276.036 43.200 C 275.570 43.200,275.192 42.821,275.036 42.200 C 274.875 41.558,274.503 41.200,274.000 41.200 C 273.497 41.200,273.125 40.842,272.964 40.200 C 272.808 39.579,272.430 39.200,271.964 39.200 C 271.499 39.200,271.120 38.821,270.964 38.200 C 270.808 37.579,270.430 37.200,269.964 37.200 C 269.504 37.200,269.121 36.824,268.970 36.223 C 268.821 35.628,268.387 35.198,267.862 35.123 C 267.330 35.047,266.952 34.665,266.875 34.125 C 266.798 33.579,266.421 33.202,265.875 33.125 C 265.321 33.046,264.953 32.670,264.872 32.100 C 264.791 31.525,264.468 31.200,263.980 31.200 C 263.498 31.200,263.122 30.830,262.964 30.200 C 262.808 29.579,262.430 29.200,261.964 29.200 C 261.499 29.200,261.120 28.821,260.964 28.200 C 260.814 27.601,260.427 27.200,260.000 27.200 C 259.573 27.200,259.186 26.799,259.036 26.200 C 258.880 25.579,258.501 25.200,258.036 25.200 C 257.570 25.200,257.192 24.821,257.036 24.200 C 256.878 23.570,256.502 23.200,256.020 23.200 C 255.532 23.200,255.209 22.875,255.128 22.300 C 255.036 21.656,254.688 21.364,253.900 21.273 C 253.036 21.174,252.800 20.938,252.800 20.173 C 252.800 19.402,252.593 19.200,251.800 19.200 C 251.080 19.200,250.800 18.985,250.800 18.431 C 250.800 18.008,250.259 17.063,249.597 16.331 C 247.260 13.747,246.863 13.228,246.612 12.439 C 246.473 12.000,246.020 11.533,245.605 11.402 C 245.190 11.270,244.794 10.766,244.725 10.281 C 244.650 9.755,244.273 9.353,243.788 9.284 C 243.341 9.220,242.801 8.770,242.588 8.284 C 242.292 7.610,241.802 7.371,240.525 7.278 C 239.151 7.178,238.827 6.999,238.725 6.278 C 238.598 5.385,234.238 4.695,233.484 5.450 M241.888 21.001 C 248.644 29.472,252.851 34.114,263.096 44.400 C 270.796 52.130,274.358 55.509,281.347 61.712 C 282.036 62.323,282.960 63.152,283.400 63.553 C 283.840 63.955,286.540 66.213,289.400 68.572 C 292.260 70.931,295.070 73.252,295.644 73.731 C 296.218 74.209,297.208 74.999,297.844 75.486 C 298.480 75.974,300.212 77.324,301.694 78.486 C 304.713 80.855,308.594 83.830,311.000 85.621 C 311.880 86.276,312.960 87.088,313.400 87.426 C 314.952 88.616,319.813 92.216,320.800 92.908 C 322.038 93.775,324.154 95.278,326.000 96.600 C 326.770 97.152,328.030 98.052,328.800 98.600 C 329.570 99.148,330.830 100.048,331.600 100.600 C 332.370 101.152,333.630 102.052,334.400 102.600 C 335.170 103.148,336.369 104.003,337.064 104.499 C 337.992 105.160,342.727 108.457,343.467 108.956 C 345.095 110.055,339.925 114.964,336.209 115.849 C 335.553 116.005,334.203 116.717,333.209 117.431 C 331.380 118.744,328.959 120.179,326.400 121.468 C 325.630 121.856,324.550 122.471,324.000 122.834 C 323.450 123.198,322.550 123.633,322.000 123.802 C 321.450 123.970,319.110 125.190,316.800 126.511 C 314.490 127.833,311.970 129.256,311.200 129.674 C 310.430 130.091,308.000 131.499,305.800 132.802 C 303.600 134.105,300.516 135.899,298.947 136.788 C 297.379 137.676,295.872 138.673,295.598 139.002 C 295.325 139.331,294.909 139.600,294.673 139.600 C 294.436 139.600,293.558 140.050,292.722 140.600 C 291.885 141.150,290.525 142.019,289.700 142.531 C 288.875 143.043,287.480 143.929,286.600 144.501 C 280.768 148.292,280.607 148.269,276.256 143.059 C 274.392 140.827,272.356 138.446,271.733 137.768 C 270.669 136.611,264.674 129.996,263.800 129.015 C 261.822 126.794,249.123 113.365,239.978 103.823 C 230.536 93.971,228.438 91.771,227.371 90.600 C 226.368 89.500,220.785 83.486,216.400 78.782 C 215.410 77.721,213.700 75.808,212.600 74.533 C 211.500 73.257,210.240 71.839,209.800 71.382 C 209.360 70.924,207.396 68.671,205.435 66.375 C 203.475 64.079,201.669 62.020,201.422 61.800 C 200.940 61.369,190.389 48.725,189.406 47.400 C 189.079 46.960,188.315 45.940,187.706 45.134 C 187.098 44.327,185.885 42.662,185.012 41.434 C 184.139 40.205,183.279 39.200,183.102 39.200 C 182.131 39.200,184.119 36.839,185.293 36.598 C 186.012 36.451,187.320 36.002,188.200 35.602 C 189.080 35.201,190.826 34.584,192.080 34.231 C 193.333 33.878,194.469 33.412,194.603 33.195 C 194.737 32.978,195.110 32.800,195.432 32.800 C 196.032 32.800,202.449 30.438,204.600 29.425 C 205.260 29.115,206.520 28.647,207.400 28.386 C 208.280 28.124,209.360 27.689,209.800 27.417 C 210.240 27.145,211.543 26.611,212.695 26.231 C 213.848 25.850,214.893 25.373,215.019 25.169 C 215.144 24.966,215.521 24.800,215.857 24.800 C 216.488 24.800,220.717 23.083,224.200 21.413 C 225.300 20.886,226.697 20.332,227.304 20.183 C 227.911 20.033,228.508 19.749,228.631 19.550 C 228.754 19.351,229.515 18.912,230.322 18.575 C 231.129 18.238,232.152 17.629,232.595 17.223 C 233.537 16.359,236.477 14.752,236.848 14.899 C 236.988 14.954,239.256 17.700,241.888 21.001 M179.183 43.496 C 179.650 44.103,181.041 46.130,182.273 48.000 C 183.505 49.870,184.892 51.881,185.356 52.469 C 185.820 53.058,186.740 54.306,187.400 55.243 C 188.496 56.800,199.476 70.185,200.824 71.608 C 201.141 71.942,202.194 73.112,203.164 74.208 C 205.813 77.200,213.161 85.106,218.781 91.014 C 227.978 100.679,247.197 120.415,259.016 132.331 C 274.419 147.860,274.045 146.798,263.769 145.814 C 244.479 143.966,232.005 143.691,209.600 144.619 C 181.085 145.800,176.732 145.908,156.400 145.931 C 129.748 145.961,70.513 144.755,64.306 144.056 C 59.015 143.460,58.661 142.200,62.707 138.366 C 75.554 126.189,85.115 118.120,118.597 91.200 C 138.184 75.452,155.243 61.140,159.430 56.942 C 160.560 55.810,162.185 54.441,163.042 53.900 C 163.899 53.359,165.680 51.791,167.000 50.416 C 168.320 49.041,171.088 46.501,173.150 44.771 C 177.231 41.349,177.488 41.295,179.183 43.496 M344.000 137.600 C 343.384 196.091,343.793 300.404,344.665 307.200 C 345.628 314.709,345.673 320.347,344.780 321.425 C 344.461 321.810,343.011 323.074,341.557 324.234 C 340.103 325.394,338.661 326.581,338.351 326.872 C 338.042 327.162,336.172 328.840,334.196 330.600 C 324.145 339.553,304.875 357.946,287.404 375.263 C 280.412 382.193,276.875 385.436,276.604 385.164 C 276.115 384.676,276.114 383.779,276.526 338.000 C 276.706 318.090,277.017 298.740,277.218 295.000 C 277.419 291.260,277.773 280.100,278.005 270.200 C 278.712 239.960,279.181 224.843,279.581 219.400 C 279.791 216.540,280.155 208.196,280.389 200.857 C 280.624 193.518,281.077 185.688,281.396 183.457 C 281.716 181.226,282.170 176.340,282.406 172.600 C 282.837 165.793,284.132 153.319,284.438 153.046 C 284.527 152.967,285.140 152.601,285.800 152.233 C 286.460 151.865,288.576 150.627,290.503 149.482 C 292.429 148.337,295.939 146.253,298.303 144.852 C 300.666 143.451,303.230 141.899,304.000 141.405 C 304.770 140.911,307.110 139.537,309.200 138.353 C 311.290 137.169,313.305 136.020,313.677 135.800 C 314.049 135.580,316.659 134.084,319.477 132.476 C 322.295 130.868,325.541 128.888,326.691 128.076 C 329.503 126.091,331.684 124.757,334.833 123.096 C 337.714 121.576,339.072 120.772,341.200 119.329 C 344.379 117.173,344.226 116.170,344.000 137.600 M64.600 151.417 C 66.876 152.110,82.661 152.773,97.600 152.803 C 102.550 152.813,108.310 152.993,110.400 153.203 C 122.926 154.459,187.576 154.447,195.200 153.187 C 203.418 151.829,273.815 152.335,275.476 153.764 L 276.487 154.633 276.004 159.217 C 275.739 161.737,275.281 164.885,274.987 166.211 C 274.693 167.536,274.253 170.596,274.009 173.011 C 273.765 175.425,273.308 179.020,272.994 181.000 C 272.680 182.980,272.237 187.390,272.010 190.800 C 271.782 194.210,271.419 199.070,271.202 201.600 C 270.595 208.686,270.037 220.447,269.588 235.600 C 269.364 243.190,269.006 253.540,268.794 258.600 C 267.199 296.613,267.320 380.582,268.977 386.391 C 270.465 391.608,270.454 391.613,257.317 391.752 C 248.911 391.841,246.518 391.994,244.400 392.574 C 241.095 393.480,234.804 393.290,233.655 392.250 C 233.008 391.664,232.896 390.620,232.677 383.094 C 232.398 373.536,231.773 364.593,231.218 362.200 C 231.014 361.320,230.647 358.260,230.403 355.400 C 230.159 352.540,229.624 348.490,229.214 346.400 C 228.803 344.310,228.349 341.430,228.204 340.000 C 228.059 338.570,227.607 336.140,227.200 334.600 C 226.793 333.060,226.336 330.810,226.185 329.600 C 226.035 328.390,225.664 326.799,225.361 326.064 C 225.059 325.330,224.607 323.530,224.357 322.064 C 224.108 320.599,223.653 318.787,223.346 318.037 C 223.039 317.288,222.516 315.500,222.183 314.065 C 221.850 312.630,221.416 311.261,221.219 311.023 C 221.022 310.785,220.588 309.512,220.255 308.195 C 219.923 306.878,219.084 304.270,218.391 302.400 C 217.699 300.530,216.782 297.932,216.354 296.627 C 215.927 295.322,215.425 294.062,215.240 293.827 C 215.056 293.592,214.678 292.680,214.401 291.800 C 214.123 290.920,213.665 289.750,213.382 289.200 C 213.099 288.650,211.581 285.590,210.008 282.400 C 199.466 261.025,188.217 252.603,170.200 252.601 C 149.643 252.598,136.357 264.772,127.202 292.000 C 126.721 293.430,126.156 295.500,125.946 296.600 C 125.736 297.700,125.316 299.245,125.012 300.034 C 124.708 300.823,124.261 302.623,124.020 304.034 C 123.778 305.445,123.241 307.950,122.826 309.600 C 122.411 311.250,121.952 313.770,121.805 315.200 C 121.658 316.630,121.276 318.790,120.957 320.000 C 120.637 321.210,120.196 324.090,119.977 326.400 C 119.758 328.710,119.303 332.040,118.967 333.800 C 116.922 344.499,116.745 372.368,118.676 379.800 C 119.018 381.120,119.536 383.370,119.827 384.800 C 120.117 386.230,120.635 388.188,120.977 389.150 C 122.567 393.617,122.493 393.662,112.600 394.248 C 108.200 394.508,99.470 395.023,93.200 395.391 C 78.451 396.259,63.608 396.116,61.712 395.089 C 59.505 393.894,59.438 393.499,59.987 384.826 C 60.370 378.770,60.385 372.205,60.052 355.800 C 59.197 313.654,59.178 306.796,59.811 268.000 C 60.164 246.330,60.516 211.320,60.593 190.200 C 60.669 169.080,60.747 151.575,60.766 151.300 C 60.811 150.634,62.162 150.675,64.600 151.417 M104.398 180.185 C 99.392 181.801,95.964 186.961,95.964 192.883 C 95.964 197.703,96.224 198.424,101.049 206.985 C 103.222 210.840,105.529 215.010,106.176 216.252 L 107.353 218.509 106.315 222.354 C 105.745 224.469,104.954 227.280,104.558 228.600 C 104.004 230.449,103.834 232.429,103.819 237.219 L 103.800 243.437 105.110 246.019 C 112.102 259.792,130.389 255.246,132.267 239.267 C 132.786 234.852,136.365 233.128,147.794 231.787 C 150.871 231.426,153.500 231.062,153.637 230.977 C 153.774 230.892,156.837 230.547,160.443 230.209 C 164.049 229.872,168.620 229.327,170.600 229.000 C 176.137 228.082,187.120 228.005,187.728 228.878 C 187.988 229.251,189.280 231.122,190.600 233.037 C 193.486 237.222,200.554 244.523,203.600 246.468 C 213.818 252.989,220.029 253.412,224.764 247.909 C 230.949 240.720,230.905 234.896,224.572 222.752 C 219.261 212.566,219.211 214.113,225.210 202.842 C 230.543 192.824,229.037 184.988,221.026 181.065 C 212.673 176.975,196.524 183.494,190.267 193.481 C 188.881 195.694,188.238 195.793,178.047 195.355 C 168.182 194.930,145.275 194.944,135.800 195.380 C 128.684 195.707,126.800 195.303,126.800 193.452 C 126.800 191.342,119.657 183.572,115.664 181.339 C 112.591 179.620,107.701 179.120,104.398 180.185 M113.477 186.624 C 117.597 189.039,121.949 194.314,122.368 197.402 C 122.741 200.151,123.917 201.313,126.027 201.015 C 126.812 200.904,128.072 200.995,128.827 201.217 C 131.834 202.099,188.472 201.909,189.817 201.012 C 190.468 200.578,191.539 199.948,192.198 199.612 C 193.115 199.143,193.453 198.641,193.640 197.468 C 193.902 195.829,198.178 191.041,200.347 189.960 C 200.926 189.671,201.670 189.221,202.000 188.961 C 206.656 185.286,217.252 184.314,220.601 187.254 C 223.676 189.955,222.903 197.806,219.131 202.168 C 218.757 202.601,218.557 202.959,216.057 207.669 C 214.472 210.657,214.097 215.335,215.293 217.203 C 215.644 217.751,216.155 218.965,216.429 219.900 C 216.703 220.835,217.056 221.600,217.214 221.600 C 217.372 221.600,217.894 222.455,218.374 223.500 C 218.854 224.545,219.495 225.850,219.798 226.400 C 221.185 228.916,222.322 231.518,222.595 232.800 C 222.758 233.570,223.063 234.412,223.271 234.671 C 223.868 235.413,223.738 238.083,223.040 239.400 C 222.691 240.060,222.404 240.782,222.402 241.004 C 222.397 241.831,219.748 244.364,218.255 244.970 C 213.124 247.052,200.887 238.096,194.320 227.454 C 194.166 227.204,193.928 226.130,193.791 225.067 C 193.401 222.052,192.763 221.902,181.664 222.217 C 173.047 222.462,171.259 222.622,166.600 223.564 C 165.500 223.787,161.844 224.156,158.475 224.384 C 155.106 224.612,152.003 224.984,151.579 225.211 C 151.156 225.438,148.085 225.885,144.754 226.204 C 141.424 226.524,138.497 226.953,138.250 227.157 C 138.002 227.361,136.676 227.819,135.303 228.175 C 133.929 228.530,132.149 229.266,131.347 229.810 C 130.545 230.355,129.747 230.800,129.574 230.800 C 128.711 230.800,126.841 235.167,126.431 238.139 C 126.154 240.142,125.708 241.644,125.199 242.293 C 124.759 242.851,124.400 243.539,124.400 243.822 C 124.400 247.183,116.888 249.678,113.609 247.406 C 109.259 244.392,107.747 233.718,110.803 227.600 C 111.188 226.830,111.621 225.570,111.767 224.800 C 111.912 224.030,112.324 222.206,112.681 220.746 C 113.425 217.705,112.831 215.487,110.169 211.377 C 109.449 210.264,108.399 208.507,107.837 207.472 C 107.276 206.438,106.338 204.738,105.755 203.696 C 102.298 197.521,101.964 196.740,101.739 194.292 C 101.056 186.888,107.142 182.912,113.477 186.624 " stroke="none" fill="#1f1f2e" fill-rule="evenodd"></path><path id="path2" d="M62.592 193.500 C 62.585 232.908,62.065 259.076,61.209 263.200 C 60.522 266.504,60.695 348.108,61.396 351.400 C 62.413 356.182,62.712 381.263,61.779 383.600 C 61.323 384.742,61.004 386.814,60.905 389.268 L 60.748 393.136 63.074 393.468 C 72.417 394.802,119.114 393.156,119.236 391.489 C 119.378 389.534,119.044 386.899,118.590 386.394 C 117.880 385.603,117.222 382.694,117.210 380.286 C 117.204 379.233,116.924 377.951,116.588 377.437 C 114.778 374.676,114.792 344.465,116.605 340.127 C 116.954 339.292,117.201 337.440,117.203 335.651 C 117.208 331.274,117.932 325.563,118.615 324.521 C 118.955 324.002,119.203 322.659,119.208 321.314 C 119.219 318.112,119.915 313.591,120.548 312.614 C 120.838 312.166,121.190 310.287,121.330 308.437 C 121.495 306.262,121.870 304.527,122.392 303.525 C 122.837 302.673,123.204 301.396,123.210 300.688 C 123.224 298.860,123.953 295.920,124.570 295.206 C 124.857 294.873,125.203 293.614,125.338 292.409 C 125.477 291.175,125.937 289.741,126.392 289.125 C 126.836 288.524,127.200 287.569,127.200 287.003 C 127.200 285.736,128.223 283.200,128.734 283.200 C 128.940 283.200,129.228 282.411,129.372 281.446 C 129.517 280.481,129.969 279.390,130.378 279.020 C 130.787 278.650,131.239 277.720,131.382 276.953 C 131.526 276.186,131.903 275.459,132.218 275.338 C 132.534 275.216,133.006 274.405,133.267 273.535 C 133.527 272.665,134.069 271.777,134.470 271.562 C 134.872 271.348,135.200 270.887,135.200 270.539 C 135.200 270.191,135.736 269.252,136.391 268.453 C 137.046 267.654,137.991 266.485,138.491 265.855 C 141.044 262.638,147.069 257.200,148.080 257.200 C 148.461 257.200,148.953 256.861,149.175 256.446 C 149.397 256.031,150.052 255.573,150.630 255.428 C 151.207 255.283,152.163 254.808,152.753 254.371 C 153.344 253.935,154.540 253.463,155.413 253.323 C 156.286 253.183,157.462 252.729,158.026 252.314 C 160.403 250.565,180.078 250.620,182.460 252.381 C 183.069 252.832,184.003 253.200,184.535 253.200 C 185.716 253.200,188.400 254.280,188.400 254.755 C 188.400 254.945,188.895 255.204,189.500 255.332 C 190.105 255.459,191.123 256.022,191.762 256.582 C 192.401 257.142,193.156 257.600,193.440 257.600 C 193.723 257.600,194.190 257.931,194.477 258.337 C 194.765 258.742,195.405 259.288,195.900 259.551 C 196.395 259.813,196.800 260.271,196.800 260.567 C 196.800 260.864,197.173 261.204,197.630 261.324 C 198.086 261.443,198.553 261.897,198.667 262.333 C 198.781 262.769,199.216 263.216,199.635 263.325 C 200.054 263.434,200.518 263.856,200.667 264.262 C 200.816 264.668,201.275 265.360,201.687 265.800 C 203.731 267.984,204.800 269.441,204.800 270.043 C 204.800 270.409,205.250 271.003,205.800 271.363 C 206.350 271.724,206.803 272.329,206.807 272.709 C 206.811 273.089,207.261 273.824,207.807 274.342 C 208.353 274.860,208.800 275.709,208.800 276.228 C 208.800 276.756,209.145 277.357,209.583 277.591 C 210.037 277.834,210.482 278.637,210.644 279.505 C 210.797 280.327,211.247 281.230,211.645 281.511 C 212.043 281.793,212.485 282.693,212.629 283.511 C 212.772 284.330,213.110 285.180,213.379 285.400 C 214.106 285.993,214.800 287.437,214.800 288.356 C 214.800 288.801,215.250 289.828,215.800 290.638 C 216.389 291.506,216.800 292.679,216.800 293.492 C 216.800 294.411,217.080 295.099,217.640 295.552 C 218.213 296.016,218.546 296.860,218.689 298.216 C 218.814 299.397,219.222 300.554,219.696 301.075 C 220.156 301.580,220.584 302.765,220.709 303.875 C 220.828 304.934,221.283 306.283,221.719 306.874 C 222.171 307.487,222.600 308.862,222.717 310.072 C 222.835 311.306,223.262 312.657,223.735 313.297 C 224.276 314.029,224.609 315.233,224.729 316.889 C 224.847 318.524,225.183 319.750,225.706 320.457 C 226.263 321.211,226.565 322.416,226.712 324.466 C 226.858 326.511,227.161 327.721,227.715 328.470 C 228.337 329.312,228.550 330.391,228.703 333.472 C 228.827 335.976,229.096 337.628,229.445 338.028 C 230.238 338.936,230.800 342.392,230.800 346.366 C 230.800 348.703,230.984 350.084,231.368 350.633 C 232.182 351.795,232.800 356.895,232.800 362.449 C 232.800 365.910,232.965 367.560,233.396 368.392 C 234.184 369.916,234.792 377.095,234.797 384.921 L 234.800 391.241 240.500 391.097 C 244.681 390.992,246.664 390.770,247.941 390.265 C 249.405 389.685,251.079 389.577,258.421 389.583 C 263.227 389.587,267.223 389.458,267.301 389.295 C 267.380 389.133,267.301 387.290,267.126 385.200 C 266.160 373.644,265.941 365.462,265.756 334.000 C 265.586 305.037,265.656 297.901,266.186 290.200 C 266.552 284.873,266.978 270.306,267.198 255.600 C 267.406 241.630,267.762 228.265,267.988 225.900 C 269.019 215.140,269.188 212.378,269.402 202.800 C 269.561 195.747,269.821 191.798,270.245 190.000 C 270.583 188.570,271.029 184.610,271.237 181.200 C 271.445 177.790,271.897 174.010,272.242 172.800 C 272.587 171.590,273.034 168.350,273.235 165.600 C 273.457 162.574,273.939 159.529,274.455 157.888 C 274.924 156.396,275.179 155.046,275.021 154.888 C 274.323 154.190,179.966 154.678,176.600 155.397 C 172.607 156.249,140.211 156.393,136.400 155.576 C 134.887 155.251,124.391 155.014,102.800 154.817 C 72.017 154.537,71.351 154.514,68.913 153.666 C 67.545 153.190,65.565 152.800,64.513 152.800 L 62.600 152.800 62.592 193.500 M113.490 178.500 C 113.915 178.885,114.609 179.201,115.031 179.201 C 115.454 179.202,116.416 179.607,117.168 180.101 C 117.920 180.596,118.847 181.188,119.229 181.417 C 119.891 181.816,123.372 185.342,125.700 187.971 C 126.305 188.655,126.800 189.564,126.800 189.993 C 126.800 190.421,127.158 190.963,127.595 191.197 C 128.033 191.432,128.491 192.023,128.614 192.512 L 128.836 193.400 158.118 193.319 C 174.223 193.275,187.805 193.230,188.300 193.219 C 188.890 193.207,189.200 192.954,189.200 192.486 C 189.200 190.823,196.750 183.214,198.411 183.204 C 198.747 183.202,199.322 182.850,199.688 182.422 C 200.054 181.995,201.030 181.518,201.858 181.363 C 202.685 181.208,203.698 180.768,204.108 180.385 C 204.871 179.675,206.536 179.200,208.264 179.200 C 208.794 179.200,209.702 178.890,210.281 178.510 C 211.771 177.534,217.018 177.527,218.503 178.500 C 219.091 178.885,220.092 179.200,220.727 179.200 C 221.362 179.200,222.493 179.646,223.241 180.191 C 223.988 180.737,225.005 181.396,225.500 181.656 C 225.995 181.916,226.400 182.255,226.400 182.409 C 226.400 182.564,226.940 183.369,227.600 184.200 C 228.302 185.084,228.800 186.185,228.800 186.855 C 228.800 187.485,228.958 188.000,229.151 188.000 C 230.547 188.000,230.842 195.595,229.484 196.588 C 229.064 196.895,228.800 197.629,228.800 198.488 C 228.800 199.322,228.396 200.484,227.800 201.362 C 227.250 202.172,226.800 203.174,226.800 203.587 C 226.800 204.000,226.350 204.873,225.800 205.527 C 225.250 206.181,224.800 206.991,224.800 207.327 C 224.800 207.663,224.331 208.496,223.758 209.177 C 222.222 211.002,222.234 216.198,223.779 217.742 C 224.340 218.304,224.800 219.156,224.800 219.636 C 224.800 220.116,225.250 220.925,225.800 221.435 C 226.428 222.017,226.800 222.798,226.800 223.532 C 226.800 224.262,227.106 224.909,227.613 225.251 C 228.104 225.582,228.521 226.435,228.666 227.400 C 228.798 228.280,229.287 229.419,229.753 229.931 C 231.403 231.744,231.108 243.489,229.396 244.146 C 229.068 244.272,228.800 244.810,228.800 245.341 C 228.800 245.931,228.410 246.564,227.800 246.963 C 227.250 247.324,226.800 247.808,226.800 248.040 C 226.800 248.553,224.604 250.800,224.103 250.800 C 223.906 250.800,223.342 251.263,222.849 251.829 L 221.955 252.858 216.141 252.729 C 210.674 252.608,210.284 252.546,209.600 251.700 C 209.178 251.178,208.428 250.800,207.818 250.800 C 207.227 250.800,206.324 250.361,205.764 249.800 C 205.214 249.250,204.481 248.800,204.135 248.800 C 203.545 248.800,202.091 247.737,199.484 245.401 C 198.870 244.850,198.207 244.400,198.011 244.400 C 197.814 244.400,197.540 244.040,197.400 243.600 C 197.260 243.160,196.884 242.800,196.564 242.800 C 196.245 242.800,195.779 242.353,195.531 241.808 C 195.282 241.262,194.746 240.710,194.339 240.581 C 193.933 240.452,193.600 240.092,193.600 239.782 C 193.600 239.472,193.150 238.924,192.600 238.563 C 192.050 238.203,191.599 237.704,191.598 237.454 C 191.597 237.204,191.057 236.425,190.398 235.722 C 189.739 235.019,189.200 234.170,189.200 233.836 C 189.200 233.502,188.842 233.037,188.405 232.803 C 187.967 232.568,187.500 231.941,187.366 231.407 C 187.065 230.208,184.920 229.790,180.894 230.146 C 179.413 230.277,175.230 230.498,171.600 230.637 C 166.592 230.829,164.421 231.083,162.600 231.689 C 160.783 232.294,158.743 232.533,154.200 232.674 C 149.473 232.821,147.796 233.027,146.296 233.643 C 145.245 234.075,142.915 234.533,141.096 234.665 C 138.827 234.830,137.551 235.119,137.000 235.592 C 136.560 235.971,135.885 236.392,135.500 236.528 C 135.115 236.664,134.799 237.096,134.798 237.487 C 134.794 238.672,134.003 241.139,133.450 241.693 C 133.164 241.979,132.822 243.018,132.690 244.002 C 132.542 245.111,132.137 246.046,131.625 246.460 C 131.171 246.828,130.800 247.416,130.800 247.768 C 130.800 249.340,124.959 254.800,123.277 254.800 C 122.754 254.800,121.869 255.160,121.309 255.600 C 119.866 256.735,114.563 256.758,113.135 255.634 C 112.599 255.213,111.630 254.808,110.981 254.734 C 110.220 254.648,109.659 254.280,109.405 253.700 C 109.188 253.205,108.689 252.800,108.297 252.800 C 107.904 252.800,107.378 252.350,107.127 251.800 C 106.877 251.250,106.443 250.800,106.163 250.800 C 105.883 250.800,105.526 250.395,105.370 249.900 C 105.213 249.405,104.758 248.770,104.359 248.489 C 103.959 248.207,103.512 247.307,103.365 246.489 C 103.219 245.670,102.806 244.667,102.449 244.259 C 101.383 243.043,101.270 232.426,102.304 230.673 C 102.724 229.961,103.188 228.214,103.336 226.790 C 103.503 225.180,103.906 223.790,104.402 223.116 C 105.519 221.600,105.551 217.212,104.450 216.524 C 104.038 216.267,103.576 215.561,103.424 214.955 C 103.272 214.349,102.710 213.333,102.174 212.696 C 101.638 212.060,101.200 211.380,101.200 211.187 C 101.200 210.994,100.750 210.172,100.200 209.362 C 99.650 208.551,99.200 207.643,99.200 207.344 C 99.200 207.045,98.834 206.434,98.388 205.988 C 97.941 205.541,97.468 204.641,97.338 203.988 C 97.207 203.334,96.933 202.800,96.730 202.800 C 96.250 202.800,95.200 200.287,95.200 199.139 C 95.200 198.652,94.816 197.460,94.348 196.492 C 93.357 194.446,93.466 190.675,94.563 189.000 C 94.914 188.465,95.200 187.650,95.200 187.188 C 95.200 184.948,100.467 179.216,102.537 179.204 C 102.942 179.202,103.752 178.824,104.336 178.365 C 105.746 177.256,112.222 177.351,113.490 178.500 " stroke="none" fill="#fbdb4c" fill-rule="evenodd"></path><path id="path3" d="M350.800 115.586 C 350.800 117.009,350.910 117.200,351.731 117.200 C 352.901 117.200,352.764 115.023,351.553 114.375 C 350.873 114.011,350.800 114.129,350.800 115.586 M341.200 119.329 C 339.072 120.772,337.714 121.576,334.833 123.096 C 331.684 124.757,329.503 126.091,326.691 128.076 C 325.541 128.888,322.295 130.868,319.477 132.476 C 316.659 134.084,314.049 135.580,313.677 135.800 C 313.305 136.020,311.290 137.169,309.200 138.353 C 307.110 139.537,304.770 140.911,304.000 141.405 C 303.230 141.899,300.666 143.451,298.303 144.852 C 295.939 146.253,292.429 148.337,290.503 149.482 C 288.576 150.627,286.460 151.865,285.800 152.233 C 285.140 152.601,284.527 152.967,284.438 153.046 C 284.132 153.319,282.837 165.793,282.406 172.600 C 282.170 176.340,281.716 181.226,281.396 183.457 C 281.077 185.688,280.624 193.518,280.389 200.857 C 280.155 208.196,279.791 216.540,279.581 219.400 C 279.181 224.843,278.712 239.960,278.005 270.200 C 277.773 280.100,277.419 291.260,277.218 295.000 C 277.017 298.740,276.706 318.090,276.526 338.000 C 276.114 383.779,276.115 384.676,276.604 385.164 C 276.875 385.436,280.412 382.193,287.404 375.263 C 304.875 357.946,324.145 339.553,334.196 330.600 C 336.172 328.840,338.042 327.162,338.351 326.872 C 338.661 326.581,340.103 325.394,341.557 324.234 C 343.011 323.074,344.461 321.810,344.780 321.425 C 345.673 320.347,345.628 314.709,344.665 307.200 C 343.793 300.404,343.384 196.091,344.000 137.600 C 344.226 116.170,344.379 117.173,341.200 119.329 M60.766 151.300 C 60.747 151.575,60.669 169.080,60.593 190.200 C 60.516 211.320,60.164 246.330,59.811 268.000 C 59.178 306.796,59.197 313.654,60.052 355.800 C 60.385 372.205,60.370 378.770,59.987 384.826 C 59.438 393.499,59.505 393.894,61.712 395.089 C 63.608 396.116,78.451 396.259,93.200 395.391 C 125.865 393.471,122.763 394.168,120.977 389.150 C 120.635 388.188,120.117 386.230,119.827 384.800 C 119.536 383.370,119.018 381.120,118.676 379.800 C 116.745 372.368,116.922 344.499,118.967 333.800 C 119.303 332.040,119.758 328.710,119.977 326.400 C 120.196 324.090,120.637 321.210,120.957 320.000 C 121.276 318.790,121.658 316.630,121.805 315.200 C 121.952 313.770,122.411 311.250,122.826 309.600 C 123.241 307.950,123.778 305.445,124.020 304.034 C 124.261 302.623,124.708 300.823,125.012 300.034 C 125.316 299.245,125.736 297.700,125.946 296.600 C 126.156 295.500,126.721 293.430,127.202 292.000 C 136.357 264.772,149.643 252.598,170.200 252.601 C 188.217 252.603,199.466 261.025,210.008 282.400 C 211.581 285.590,213.099 288.650,213.382 289.200 C 213.665 289.750,214.123 290.920,214.401 291.800 C 214.678 292.680,215.056 293.592,215.240 293.827 C 215.425 294.062,215.927 295.322,216.354 296.627 C 216.782 297.932,217.699 300.530,218.391 302.400 C 219.084 304.270,219.923 306.878,220.255 308.195 C 220.588 309.512,221.022 310.785,221.219 311.023 C 221.416 311.261,221.850 312.630,222.183 314.065 C 222.516 315.500,223.039 317.288,223.346 318.037 C 223.653 318.787,224.108 320.599,224.357 322.064 C 224.607 323.530,225.059 325.330,225.361 326.064 C 225.664 326.799,226.035 328.390,226.185 329.600 C 226.336 330.810,226.793 333.060,227.200 334.600 C 227.607 336.140,228.059 338.570,228.204 340.000 C 228.349 341.430,228.803 344.310,229.214 346.400 C 229.624 348.490,230.159 352.540,230.403 355.400 C 230.647 358.260,231.014 361.320,231.218 362.200 C 231.773 364.593,232.398 373.536,232.677 383.094 C 232.896 390.620,233.008 391.664,233.655 392.250 C 234.804 393.290,241.095 393.480,244.400 392.574 C 246.518 391.994,248.911 391.841,257.317 391.752 C 270.454 391.613,270.465 391.608,268.977 386.391 C 267.320 380.582,267.199 296.613,268.794 258.600 C 269.006 253.540,269.364 243.190,269.588 235.600 C 270.037 220.447,270.595 208.686,271.202 201.600 C 271.419 199.070,271.782 194.210,272.010 190.800 C 272.237 187.390,272.680 182.980,272.994 181.000 C 273.308 179.020,273.765 175.425,274.009 173.011 C 274.253 170.596,274.693 167.536,274.987 166.211 C 275.281 164.885,275.739 161.737,276.004 159.217 L 276.487 154.633 275.476 153.764 C 273.815 152.335,203.418 151.829,195.200 153.187 C 187.576 154.447,122.926 154.459,110.400 153.203 C 108.310 152.993,102.550 152.813,97.600 152.803 C 82.661 152.773,66.876 152.110,64.600 151.417 C 62.162 150.675,60.811 150.634,60.766 151.300 M68.913 153.666 C 71.351 154.514,72.017 154.537,102.800 154.817 C 124.391 155.014,134.887 155.251,136.400 155.576 C 140.211 156.393,172.607 156.249,176.600 155.397 C 179.966 154.678,274.323 154.190,275.021 154.888 C 275.179 155.046,274.924 156.396,274.455 157.888 C 273.939 159.529,273.457 162.574,273.235 165.600 C 273.034 168.350,272.587 171.590,272.242 172.800 C 271.897 174.010,271.445 177.790,271.237 181.200 C 271.029 184.610,270.583 188.570,270.245 190.000 C 269.821 191.798,269.561 195.747,269.402 202.800 C 269.188 212.378,269.019 215.140,267.988 225.900 C 267.762 228.265,267.406 241.630,267.198 255.600 C 266.978 270.306,266.552 284.873,266.186 290.200 C 265.656 297.901,265.586 305.037,265.756 334.000 C 265.941 365.462,266.160 373.644,267.126 385.200 C 267.301 387.290,267.380 389.133,267.301 389.295 C 267.223 389.458,263.227 389.587,258.421 389.583 C 251.079 389.577,249.405 389.685,247.941 390.265 C 246.664 390.770,244.681 390.992,240.500 391.097 L 234.800 391.241 234.797 384.921 C 234.792 377.095,234.184 369.916,233.396 368.392 C 232.965 367.560,232.800 365.910,232.800 362.449 C 232.800 356.895,232.182 351.795,231.368 350.633 C 230.984 350.084,230.800 348.703,230.800 346.366 C 230.800 342.392,230.238 338.936,229.445 338.028 C 229.096 337.628,228.827 335.976,228.703 333.472 C 228.550 330.391,228.337 329.312,227.715 328.470 C 227.161 327.721,226.858 326.511,226.712 324.466 C 226.565 322.416,226.263 321.211,225.706 320.457 C 225.183 319.750,224.847 318.524,224.729 316.889 C 224.609 315.233,224.276 314.029,223.735 313.297 C 223.262 312.657,222.835 311.306,222.717 310.072 C 222.600 308.862,222.171 307.487,221.719 306.874 C 221.283 306.283,220.828 304.934,220.709 303.875 C 220.584 302.765,220.156 301.580,219.696 301.075 C 219.222 300.554,218.814 299.397,218.689 298.216 C 218.546 296.860,218.213 296.016,217.640 295.552 C 217.080 295.099,216.800 294.411,216.800 293.492 C 216.800 292.679,216.389 291.506,215.800 290.638 C 215.250 289.828,214.800 288.801,214.800 288.356 C 214.800 287.437,214.106 285.993,213.379 285.400 C 213.110 285.180,212.772 284.330,212.629 283.511 C 212.485 282.693,212.043 281.793,211.645 281.511 C 211.247 281.230,210.797 280.327,210.644 279.505 C 210.482 278.637,210.037 277.834,209.583 277.591 C 209.145 277.357,208.800 276.756,208.800 276.228 C 208.800 275.709,208.353 274.860,207.807 274.342 C 207.261 273.824,206.811 273.089,206.807 272.709 C 206.803 272.329,206.350 271.724,205.800 271.363 C 205.250 271.003,204.800 270.409,204.800 270.043 C 204.800 269.441,203.731 267.984,201.687 265.800 C 201.275 265.360,200.816 264.668,200.667 264.262 C 200.518 263.856,200.054 263.434,199.635 263.325 C 199.216 263.216,198.781 262.769,198.667 262.333 C 198.553 261.897,198.086 261.443,197.630 261.324 C 197.173 261.204,196.800 260.864,196.800 260.567 C 196.800 260.271,196.395 259.813,195.900 259.551 C 195.405 259.288,194.765 258.742,194.477 258.337 C 194.190 257.931,193.723 257.600,193.440 257.600 C 193.156 257.600,192.401 257.142,191.762 256.582 C 191.123 256.022,190.105 255.459,189.500 255.332 C 188.895 255.204,188.400 254.945,188.400 254.755 C 188.400 254.280,185.716 253.200,184.535 253.200 C 184.003 253.200,183.069 252.832,182.460 252.381 C 180.078 250.620,160.403 250.565,158.026 252.314 C 157.462 252.729,156.286 253.183,155.413 253.323 C 154.540 253.463,153.344 253.935,152.753 254.371 C 152.163 254.808,151.207 255.283,150.630 255.428 C 150.052 255.573,149.397 256.031,149.175 256.446 C 148.953 256.861,148.461 257.200,148.080 257.200 C 147.069 257.200,141.044 262.638,138.491 265.855 C 137.991 266.485,137.046 267.654,136.391 268.453 C 135.736 269.252,135.200 270.191,135.200 270.539 C 135.200 270.887,134.872 271.348,134.470 271.562 C 134.069 271.777,133.527 272.665,133.267 273.535 C 133.006 274.405,132.534 275.216,132.218 275.338 C 131.903 275.459,131.526 276.186,131.382 276.953 C 131.239 277.720,130.787 278.650,130.378 279.020 C 129.969 279.390,129.517 280.481,129.372 281.446 C 129.228 282.411,128.940 283.200,128.734 283.200 C 128.223 283.200,127.200 285.736,127.200 287.003 C 127.200 287.569,126.836 288.524,126.392 289.125 C 125.937 289.741,125.477 291.175,125.338 292.409 C 125.203 293.614,124.857 294.873,124.570 295.206 C 123.953 295.920,123.224 298.860,123.210 300.688 C 123.204 301.396,122.837 302.673,122.392 303.525 C 121.870 304.527,121.495 306.262,121.330 308.437 C 121.190 310.287,120.838 312.166,120.548 312.614 C 119.915 313.591,119.219 318.112,119.208 321.314 C 119.203 322.659,118.955 324.002,118.615 324.521 C 117.932 325.563,117.208 331.274,117.203 335.651 C 117.201 337.440,116.954 339.292,116.605 340.127 C 114.792 344.465,114.778 374.676,116.588 377.437 C 116.924 377.951,117.204 379.233,117.210 380.286 C 117.222 382.694,117.880 385.603,118.590 386.394 C 119.044 386.899,119.378 389.534,119.236 391.489 C 119.114 393.156,72.417 394.802,63.074 393.468 L 60.748 393.136 60.905 389.268 C 61.004 386.814,61.323 384.742,61.779 383.600 C 62.712 381.263,62.413 356.182,61.396 351.400 C 60.695 348.108,60.522 266.504,61.209 263.200 C 62.065 259.076,62.585 232.908,62.592 193.500 L 62.600 152.800 64.513 152.800 C 65.565 152.800,67.545 153.190,68.913 153.666 M104.336 178.365 C 103.752 178.824,102.942 179.202,102.537 179.204 C 100.467 179.216,95.200 184.948,95.200 187.188 C 95.200 187.650,94.914 188.465,94.563 189.000 C 93.466 190.675,93.357 194.446,94.348 196.492 C 94.816 197.460,95.200 198.652,95.200 199.139 C 95.200 200.287,96.250 202.800,96.730 202.800 C 96.933 202.800,97.207 203.334,97.338 203.988 C 97.468 204.641,97.941 205.541,98.388 205.988 C 98.834 206.434,99.200 207.045,99.200 207.344 C 99.200 207.643,99.650 208.551,100.200 209.362 C 100.750 210.172,101.200 210.994,101.200 211.187 C 101.200 211.380,101.638 212.060,102.174 212.696 C 102.710 213.333,103.272 214.349,103.424 214.955 C 103.576 215.561,104.038 216.267,104.450 216.524 C 105.551 217.212,105.519 221.600,104.402 223.116 C 103.906 223.790,103.503 225.180,103.336 226.790 C 103.188 228.214,102.724 229.961,102.304 230.673 C 101.270 232.426,101.383 243.043,102.449 244.259 C 102.806 244.667,103.219 245.670,103.365 246.489 C 103.512 247.307,103.959 248.207,104.359 248.489 C 104.758 248.770,105.213 249.405,105.370 249.900 C 105.526 250.395,105.883 250.800,106.163 250.800 C 106.443 250.800,106.877 251.250,107.127 251.800 C 107.378 252.350,107.904 252.800,108.297 252.800 C 108.689 252.800,109.188 253.205,109.405 253.700 C 109.659 254.280,110.220 254.648,110.981 254.734 C 111.630 254.808,112.599 255.213,113.135 255.634 C 114.563 256.758,119.866 256.735,121.309 255.600 C 121.869 255.160,122.754 254.800,123.277 254.800 C 124.959 254.800,130.800 249.340,130.800 247.768 C 130.800 247.416,131.171 246.828,131.625 246.460 C 132.137 246.046,132.542 245.111,132.690 244.002 C 132.822 243.018,133.164 241.979,133.450 241.693 C 134.003 241.139,134.794 238.672,134.798 237.487 C 134.799 237.096,135.115 236.664,135.500 236.528 C 135.885 236.392,136.560 235.971,137.000 235.592 C 137.551 235.119,138.827 234.830,141.096 234.665 C 142.915 234.533,145.245 234.075,146.296 233.643 C 147.796 233.027,149.473 232.821,154.200 232.674 C 158.743 232.533,160.783 232.294,162.600 231.689 C 164.421 231.083,166.592 230.829,171.600 230.637 C 175.230 230.498,179.413 230.277,180.894 230.146 C 184.920 229.790,187.065 230.208,187.366 231.407 C 187.500 231.941,187.967 232.568,188.405 232.803 C 188.842 233.037,189.200 233.502,189.200 233.836 C 189.200 234.170,189.739 235.019,190.398 235.722 C 191.057 236.425,191.597 237.204,191.598 237.454 C 191.599 237.704,192.050 238.203,192.600 238.563 C 193.150 238.924,193.600 239.472,193.600 239.782 C 193.600 240.092,193.933 240.452,194.339 240.581 C 194.746 240.710,195.282 241.262,195.531 241.808 C 195.779 242.353,196.245 242.800,196.564 242.800 C 196.884 242.800,197.260 243.160,197.400 243.600 C 197.540 244.040,197.814 244.400,198.011 244.400 C 198.207 244.400,198.870 244.850,199.484 245.401 C 202.091 247.737,203.545 248.800,204.135 248.800 C 204.481 248.800,205.214 249.250,205.764 249.800 C 206.324 250.361,207.227 250.800,207.818 250.800 C 208.428 250.800,209.178 251.178,209.600 251.700 C 210.284 252.546,210.674 252.608,216.141 252.729 L 221.955 252.858 222.849 251.829 C 223.342 251.263,223.906 250.800,224.103 250.800 C 224.604 250.800,226.800 248.553,226.800 248.040 C 226.800 247.808,227.250 247.324,227.800 246.963 C 228.410 246.564,228.800 245.931,228.800 245.341 C 228.800 244.810,229.068 244.272,229.396 244.146 C 231.108 243.489,231.403 231.744,229.753 229.931 C 229.287 229.419,228.798 228.280,228.666 227.400 C 228.521 226.435,228.104 225.582,227.613 225.251 C 227.106 224.909,226.800 224.262,226.800 223.532 C 226.800 222.798,226.428 222.017,225.800 221.435 C 225.250 220.925,224.800 220.116,224.800 219.636 C 224.800 219.156,224.340 218.304,223.779 217.742 C 222.234 216.198,222.222 211.002,223.758 209.177 C 224.331 208.496,224.800 207.663,224.800 207.327 C 224.800 206.991,225.250 206.181,225.800 205.527 C 226.350 204.873,226.800 204.000,226.800 203.587 C 226.800 203.174,227.250 202.172,227.800 201.362 C 228.396 200.484,228.800 199.322,228.800 198.488 C 228.800 197.629,229.064 196.895,229.484 196.588 C 230.842 195.595,230.547 188.000,229.151 188.000 C 228.958 188.000,228.800 187.485,228.800 186.855 C 228.800 186.185,228.302 185.084,227.600 184.200 C 226.940 183.369,226.400 182.564,226.400 182.409 C 226.400 182.255,225.995 181.916,225.500 181.656 C 225.005 181.396,223.988 180.737,223.241 180.191 C 222.493 179.646,221.362 179.200,220.727 179.200 C 220.092 179.200,219.091 178.885,218.503 178.500 C 217.018 177.527,211.771 177.534,210.281 178.510 C 209.702 178.890,208.794 179.200,208.264 179.200 C 206.536 179.200,204.871 179.675,204.108 180.385 C 203.698 180.768,202.685 181.208,201.858 181.363 C 201.030 181.518,200.054 181.995,199.688 182.422 C 199.322 182.850,198.747 183.202,198.411 183.204 C 196.750 183.214,189.200 190.823,189.200 192.486 C 189.200 192.954,188.890 193.207,188.300 193.219 C 187.805 193.230,174.223 193.275,158.118 193.319 L 128.836 193.400 128.614 192.512 C 128.491 192.023,128.033 191.432,127.595 191.197 C 127.158 190.963,126.800 190.421,126.800 189.993 C 126.800 189.564,126.305 188.655,125.700 187.971 C 123.372 185.342,119.891 181.816,119.229 181.417 C 118.847 181.188,117.920 180.596,117.168 180.101 C 116.416 179.607,115.454 179.202,115.031 179.201 C 114.609 179.201,113.915 178.885,113.490 178.500 C 112.222 177.351,105.746 177.256,104.336 178.365 M115.664 181.339 C 119.657 183.572,126.800 191.342,126.800 193.452 C 126.800 195.303,128.684 195.707,135.800 195.380 C 145.275 194.944,168.182 194.930,178.047 195.355 C 188.238 195.793,188.881 195.694,190.267 193.481 C 196.524 183.494,212.673 176.975,221.026 181.065 C 229.037 184.988,230.543 192.824,225.210 202.842 C 219.211 214.113,219.261 212.566,224.572 222.752 C 230.905 234.896,230.949 240.720,224.764 247.909 C 220.029 253.412,213.818 252.989,203.600 246.468 C 200.554 244.523,193.486 237.222,190.600 233.037 C 189.280 231.122,187.988 229.251,187.728 228.878 C 187.120 228.005,176.137 228.082,170.600 229.000 C 168.620 229.327,164.049 229.872,160.443 230.209 C 156.837 230.547,153.774 230.892,153.637 230.977 C 153.500 231.062,150.871 231.426,147.794 231.787 C 136.365 233.128,132.786 234.852,132.267 239.267 C 130.389 255.246,112.102 259.792,105.110 246.019 L 103.800 243.437 103.819 237.219 C 103.834 232.429,104.004 230.449,104.558 228.600 C 104.954 227.280,105.745 224.469,106.315 222.354 L 107.353 218.509 106.176 216.252 C 105.529 215.010,103.222 210.840,101.049 206.985 C 96.224 198.424,95.964 197.703,95.964 192.883 C 95.964 182.341,106.459 176.191,115.664 181.339 M215.206 206.789 C 214.543 208.102,214.011 209.497,214.025 209.889 C 214.048 210.555,214.627 209.467,216.148 205.900 C 217.140 203.572,216.547 204.132,215.206 206.789 M165.300 222.676 C 165.685 222.776,166.315 222.776,166.700 222.676 C 167.085 222.575,166.770 222.493,166.000 222.493 C 165.230 222.493,164.915 222.575,165.300 222.676 M219.694 242.812 C 218.975 243.465,218.537 244.000,218.719 244.000 C 218.901 244.000,219.568 243.460,220.200 242.800 C 221.670 241.265,221.386 241.272,219.694 242.812 " stroke="none" fill="#e0ba2f" fill-rule="evenodd"></path><path id="path4" d="M106.958 186.532 C 102.522 187.796,101.191 193.071,103.963 198.400 C 104.707 199.830,105.829 201.900,106.456 203.000 C 107.084 204.100,107.967 205.720,108.420 206.600 C 108.872 207.480,109.766 209.010,110.406 210.000 C 113.971 215.517,114.755 218.620,113.400 221.862 C 113.070 222.651,112.800 223.650,112.800 224.082 C 112.800 224.513,112.356 226.156,111.813 227.733 C 108.315 237.895,110.797 247.547,116.920 247.587 C 121.191 247.615,125.140 242.899,125.771 237.017 C 126.485 230.360,131.491 226.957,142.800 225.439 C 145.110 225.129,149.070 224.594,151.600 224.251 C 154.130 223.908,157.820 223.456,159.800 223.245 C 161.780 223.035,165.560 222.584,168.200 222.243 C 174.534 221.425,188.739 220.817,191.122 221.262 C 193.535 221.713,194.328 222.554,194.656 225.006 C 194.811 226.168,195.316 227.500,195.867 228.200 C 196.387 228.860,196.944 229.582,197.106 229.804 C 203.607 238.743,213.634 245.580,217.881 243.971 C 223.992 241.655,223.417 233.190,216.388 222.000 C 214.474 218.954,213.800 216.534,213.825 212.800 C 213.853 208.710,213.918 208.537,217.614 202.800 C 220.513 198.301,222.276 193.399,221.838 191.060 C 220.985 186.514,213.482 184.688,207.600 187.595 C 206.830 187.975,205.674 188.413,205.032 188.568 C 204.389 188.723,203.420 189.198,202.878 189.625 C 202.336 190.051,201.646 190.400,201.346 190.400 C 200.074 190.400,194.457 196.678,194.326 198.247 C 194.207 199.663,194.046 199.824,191.400 201.173 L 188.600 202.600 161.400 202.527 C 120.340 202.418,122.484 202.661,121.602 198.012 C 120.817 193.871,114.700 187.333,110.761 186.425 C 108.704 185.951,109.029 185.942,106.958 186.532 " stroke="none" fill="#f5f5ed" fill-rule="evenodd"></path></g></svg>